<svg width="62" height="84" viewBox="0 0 62 84" fill="none" xmlns="http://www.w3.org/2000/svg">
<path id="Arrow 1" d="M61.0871 79.2255C61.5719 78.961 61.7506 78.3536 61.4861 77.8687L57.1764 69.9677C56.912 69.4828 56.3045 69.3042 55.8197 69.5686C55.3348 69.8331 55.1562 70.4405 55.4206 70.9254L59.2515 77.9486L52.2283 81.7794C51.7435 82.0438 51.5648 82.6513 51.8293 83.1361C52.0937 83.621 52.7012 83.7996 53.186 83.5352L61.0871 79.2255ZM0.373047 0.886231C0.373047 1.69874 0.381804 2.50817 0.399419 3.31439L2.39894 3.2707C2.38165 2.47923 2.37305 1.68437 2.37305 0.88623L0.373047 0.886231ZM0.615456 8.15988C0.725886 9.78645 0.874482 11.3985 1.06213 12.9949L3.04845 12.7614C2.86474 11.1984 2.71913 9.61911 2.61086 8.02441L0.615456 8.15988ZM1.75436 17.8017C2.02962 19.409 2.34711 20.9986 2.70779 22.5693L4.65706 22.1217C4.30495 20.5884 3.99476 19.0355 3.72566 17.4641L1.75436 17.8017ZM3.93573 27.2757C4.39424 28.8391 4.89879 30.3815 5.45042 31.9015L7.33045 31.2192C6.79342 29.7395 6.30186 28.2369 5.85489 26.7129L3.93573 27.2757ZM7.26071 36.4232C7.91477 37.9119 8.61787 39.3764 9.37103 40.8152L11.1429 39.8876C10.4112 38.4898 9.72781 37.0664 9.09179 35.6187L7.26071 36.4232ZM11.7808 45.0518C12.6313 46.4319 13.5324 47.785 14.4849 49.1098L16.1088 47.9423C15.1841 46.6562 14.3093 45.3425 13.4835 44.0025L11.7808 45.0518ZM17.4689 52.9634C18.5019 54.2038 19.5849 55.4157 20.7189 56.5979L22.1622 55.2134C21.0606 54.0649 20.0087 52.8879 19.0058 51.6836L17.4689 52.9634ZM24.2099 59.9954C25.3991 61.0764 26.6363 62.1287 27.9221 63.1512L29.1669 61.5858C27.9152 60.5904 26.7116 59.5666 25.5552 58.5155L24.2099 59.9954ZM31.8234 66.0564C33.1381 66.9732 34.4975 67.862 35.9022 68.7218L36.9464 67.0161C35.575 66.1766 34.2489 65.3096 32.9673 64.4159L31.8234 66.0564ZM40.1099 71.1373C41.5148 71.893 42.9604 72.6224 44.4471 73.3247L45.3013 71.5163C43.8455 70.8286 42.4311 70.1149 41.0574 69.376L40.1099 71.1373ZM48.8933 75.2926C50.3618 75.9008 51.8669 76.4846 53.409 77.0434L54.0904 75.1631C52.5758 74.6143 51.0987 74.0413 49.6585 73.4448L48.8933 75.2926ZM57.9957 78.5966C58.764 78.8392 59.5408 79.076 60.326 79.307L60.8904 77.3882C60.1176 77.161 59.3535 76.928 58.598 76.6894L57.9957 78.5966ZM61.0871 79.2255C61.5719 78.961 61.7506 78.3536 61.4861 77.8687L57.1764 69.9677C56.912 69.4828 56.3045 69.3042 55.8197 69.5686C55.3348 69.8331 55.1562 70.4405 55.4206 70.9254L59.2515 77.9486L52.2283 81.7794C51.7435 82.0438 51.5648 82.6513 51.8293 83.1361C52.0937 83.621 52.7012 83.7996 53.186 83.5352L61.0871 79.2255ZM0.373047 0.886231C0.373047 1.69874 0.381804 2.50817 0.399419 3.31439L2.39894 3.2707C2.38165 2.47923 2.37305 1.68437 2.37305 0.88623L0.373047 0.886231ZM0.615456 8.15988C0.725886 9.78645 0.874482 11.3985 1.06213 12.9949L3.04845 12.7614C2.86474 11.1984 2.71913 9.61911 2.61086 8.02441L0.615456 8.15988ZM1.75436 17.8017C2.02962 19.409 2.34711 20.9986 2.70779 22.5693L4.65706 22.1217C4.30495 20.5884 3.99476 19.0355 3.72566 17.4641L1.75436 17.8017ZM3.93573 27.2757C4.39424 28.8391 4.89879 30.3815 5.45042 31.9015L7.33045 31.2192C6.79342 29.7395 6.30186 28.2369 5.85489 26.7129L3.93573 27.2757ZM7.26071 36.4232C7.91477 37.9119 8.61787 39.3764 9.37103 40.8152L11.1429 39.8876C10.4112 38.4898 9.72781 37.0664 9.09179 35.6187L7.26071 36.4232ZM11.7808 45.0518C12.6313 46.4319 13.5324 47.785 14.4849 49.1098L16.1088 47.9423C15.1841 46.6562 14.3093 45.3425 13.4835 44.0025L11.7808 45.0518ZM17.4689 52.9634C18.5019 54.2038 19.5849 55.4157 20.7189 56.5979L22.1622 55.2134C21.0606 54.0649 20.0087 52.8879 19.0058 51.6836L17.4689 52.9634ZM24.2099 59.9954C25.3991 61.0764 26.6363 62.1287 27.9221 63.1512L29.1669 61.5858C27.9152 60.5904 26.7116 59.5666 25.5552 58.5155L24.2099 59.9954ZM31.8234 66.0564C33.1381 66.9732 34.4975 67.862 35.9022 68.7218L36.9464 67.0161C35.575 66.1766 34.2489 65.3096 32.9673 64.4159L31.8234 66.0564ZM40.1099 71.1373C41.5148 71.893 42.9604 72.6224 44.4471 73.3247L45.3013 71.5163C43.8455 70.8286 42.4311 70.1149 41.0574 69.376L40.1099 71.1373ZM48.8933 75.2926C50.3618 75.9008 51.8669 76.4846 53.409 77.0434L54.0904 75.1631C52.5758 74.6143 51.0987 74.0413 49.6585 73.4448L48.8933 75.2926ZM57.9957 78.5966C58.764 78.8392 59.5408 79.076 60.326 79.307L60.8904 77.3882C60.1176 77.161 59.3535 76.928 58.598 76.6894L57.9957 78.5966Z" fill="url(#paint0_linear_360_401)"/>
<defs>
<linearGradient id="paint0_linear_360_401" x1="-7.37024" y1="9.62952" x2="60.978" y2="77.9778" gradientUnits="userSpaceOnUse">
<stop offset="0.697105" stop-color="#888888"/>
<stop offset="1"/>
</linearGradient>
</defs>
</svg>
