<svg width="16" height="58" viewBox="0 0 16 58" fill="none" xmlns="http://www.w3.org/2000/svg">
<path id="Arrow 11" d="M7.29289 57.7071C7.68341 58.0976 8.31658 58.0976 8.7071 57.7071L15.0711 51.3431C15.4616 50.9526 15.4616 50.3195 15.0711 49.9289C14.6805 49.5384 14.0474 49.5384 13.6569 49.9289L8 55.5858L2.34314 49.9289C1.95262 49.5384 1.31945 49.5384 0.92893 49.9289C0.538406 50.3195 0.538406 50.9526 0.92893 51.3431L7.29289 57.7071ZM7 -4.37114e-08L7 2.03571L9 2.03571L9 4.37114e-08L7 -4.37114e-08ZM7 6.10714L7 10.1786L9 10.1786L9 6.10714L7 6.10714ZM7 14.25L7 18.3214L9 18.3214L9 14.25L7 14.25ZM7 22.3929L7 26.4643L9 26.4643L9 22.3929L7 22.3929ZM7 30.5357L7 34.6071L9 34.6071L9 30.5357L7 30.5357ZM7 38.6786L7 42.75L9 42.75L9 38.6786L7 38.6786ZM7 46.8214L7 50.8929L9 50.8929L9 46.8214L7 46.8214ZM7 54.9643L7 57L9 57L9 54.9643L7 54.9643ZM7.29289 57.7071C7.68341 58.0976 8.31658 58.0976 8.7071 57.7071L15.0711 51.3431C15.4616 50.9526 15.4616 50.3195 15.0711 49.9289C14.6805 49.5384 14.0474 49.5384 13.6569 49.9289L8 55.5858L2.34314 49.9289C1.95262 49.5384 1.31945 49.5384 0.92893 49.9289C0.538406 50.3195 0.538406 50.9526 0.92893 51.3431L7.29289 57.7071ZM7 -4.37114e-08L7 2.03571L9 2.03571L9 4.37114e-08L7 -4.37114e-08ZM7 6.10714L7 10.1786L9 10.1786L9 6.10714L7 6.10714ZM7 14.25L7 18.3214L9 18.3214L9 14.25L7 14.25ZM7 22.3929L7 26.4643L9 26.4643L9 22.3929L7 22.3929ZM7 30.5357L7 34.6071L9 34.6071L9 30.5357L7 30.5357ZM7 38.6786L7 42.75L9 42.75L9 38.6786L7 38.6786ZM7 46.8214L7 50.8929L9 50.8929L9 46.8214L7 46.8214ZM7 54.9643L7 57L9 57L9 54.9643L7 54.9643Z" fill="url(#paint0_linear_35_88)"/>
<defs>
<linearGradient id="paint0_linear_35_88" x1="7.5" y1="-2.18557e-08" x2="7.5" y2="57" gradientUnits="userSpaceOnUse">
<stop stop-color="#666666"/>
<stop offset="1"/>
</linearGradient>
</defs>
</svg>
