<svg width="103" height="108" viewBox="0 0 103 108" fill="none" xmlns="http://www.w3.org/2000/svg">
<path id="Arrow 10" d="M102.332 101.794C102.771 101.458 102.854 100.83 102.518 100.392L97.0443 93.2476C96.7084 92.8092 96.0807 92.726 95.6423 93.0619C95.2039 93.3978 95.1208 94.0255 95.4567 94.4639L100.322 100.814L93.9716 105.68C93.5332 106.016 93.4501 106.643 93.786 107.082C94.1219 107.52 94.7496 107.603 95.188 107.267L102.332 101.794ZM101.855 100.009C101.167 99.9175 100.484 99.8248 99.8064 99.7304L99.5306 101.711C100.213 101.806 100.9 101.9 101.593 101.991L101.855 100.009ZM95.7947 99.1432C94.4246 98.9325 93.0757 98.7143 91.7476 98.4882L91.412 100.46C92.751 100.688 94.1105 100.908 95.4907 101.12L95.7947 99.1432ZM87.7313 97.7684C86.3805 97.5137 85.0524 97.25 83.7463 96.977L83.3371 98.9347C84.6565 99.2105 85.9975 99.4767 87.3607 99.7338L87.7313 97.7684ZM79.7792 96.103C78.4328 95.7905 77.111 95.467 75.8132 95.132L75.3133 97.0685C76.6275 97.4078 77.9653 97.7352 79.3271 98.0512L79.7792 96.103ZM71.8861 94.0617C70.5647 93.6818 69.2697 93.2885 68.0003 92.8814L67.3895 94.7859C68.6789 95.1994 69.9934 95.5985 71.3334 95.9838L71.8861 94.0617ZM64.1602 91.5795C62.87 91.1173 61.6077 90.639 60.3725 90.144L59.6285 92.0005C60.8875 92.505 62.173 92.9921 63.4857 93.4624L64.1602 91.5795ZM56.6463 88.5628C55.3987 88.0026 54.1803 87.423 52.9903 86.8233L52.0903 88.6093C53.3077 89.2228 54.553 89.8152 55.827 90.3873L56.6463 88.5628ZM49.4205 84.9161C48.236 84.2454 47.0812 83.552 45.9549 82.835L44.8808 84.5221C46.0368 85.2581 47.2212 85.9692 48.4352 86.6565L49.4205 84.9161ZM42.6077 80.5746C41.5079 79.787 40.4368 78.9735 39.3933 78.133L38.1388 79.6907C39.2119 80.555 40.3131 81.3914 41.4433 82.2007L42.6077 80.5746ZM36.3245 75.5123C35.3275 74.6098 34.3571 73.6789 33.412 72.7186L31.9866 74.1215C32.9585 75.1091 33.9567 76.0667 34.9823 76.9951L36.3245 75.5123ZM30.6632 69.762C29.7799 68.7565 28.9198 67.7213 28.0819 66.6554L26.5096 67.8914C27.3696 68.9854 28.2529 70.0486 29.1607 71.0819L30.6632 69.762ZM25.6681 63.414C24.8989 62.3238 24.1493 61.204 23.4183 60.0537L21.7303 61.1264C22.4782 62.3032 23.2457 63.4499 24.034 64.567L25.6681 63.414ZM21.3258 56.5903C20.6621 55.4351 20.0144 54.2514 19.3818 53.0382L17.6084 53.9629C18.2532 55.1994 18.9139 56.4071 19.5916 57.5866L21.3258 56.5903ZM17.576 49.4102C17.0039 48.2062 16.4445 46.9753 15.8972 45.7167L14.0631 46.5143C14.619 47.7925 15.1876 49.0438 15.7696 50.2686L17.576 49.4102ZM14.334 41.9659C13.8378 40.7241 13.3517 39.457 12.8752 38.1641L10.9986 38.8558C11.4811 40.1649 11.9736 41.4488 12.4767 42.708L14.334 41.9659ZM11.5101 34.3153C11.0794 33.0537 10.6566 31.7689 10.241 30.4605L8.33486 31.0659C8.75454 32.3873 9.18185 33.6857 9.61735 34.9615L11.5101 34.3153ZM9.0484 26.5739C8.66708 25.2882 8.29191 23.9809 7.92241 22.6517L5.99547 23.1873C6.36791 24.5272 6.74624 25.8454 7.13095 27.1426L9.0484 26.5739ZM6.85532 18.6926C6.51785 17.4017 6.18502 16.0912 5.85645 14.7606L3.91477 15.24C4.24542 16.5791 4.58049 17.8985 4.92035 19.1985L6.85532 18.6926ZM4.90342 10.795C4.59557 9.47936 4.29133 8.14499 3.99032 6.7916L2.03802 7.22581C2.34055 8.58604 2.64643 9.92757 2.95601 11.2507L4.90342 10.795ZM3.12806 2.8219C2.98577 2.15137 2.84415 1.47636 2.70317 0.796835L0.744881 1.20311C0.886446 1.88552 1.02869 2.56351 1.17163 3.23708L3.12806 2.8219ZM102.332 101.794C102.771 101.458 102.854 100.83 102.518 100.392L97.0443 93.2476C96.7084 92.8092 96.0807 92.726 95.6423 93.0619C95.2039 93.3978 95.1208 94.0255 95.4567 94.4639L100.322 100.814L93.9716 105.68C93.5332 106.016 93.4501 106.643 93.786 107.082C94.1219 107.52 94.7496 107.603 95.188 107.267L102.332 101.794ZM101.855 100.009C101.167 99.9175 100.484 99.8248 99.8064 99.7304L99.5306 101.711C100.213 101.806 100.9 101.9 101.593 101.991L101.855 100.009ZM95.7947 99.1432C94.4246 98.9325 93.0757 98.7143 91.7476 98.4882L91.412 100.46C92.751 100.688 94.1105 100.908 95.4907 101.12L95.7947 99.1432ZM87.7313 97.7684C86.3805 97.5137 85.0524 97.25 83.7463 96.977L83.3371 98.9347C84.6565 99.2105 85.9975 99.4767 87.3607 99.7338L87.7313 97.7684ZM79.7792 96.103C78.4328 95.7905 77.111 95.467 75.8132 95.132L75.3133 97.0685C76.6275 97.4078 77.9653 97.7352 79.3271 98.0512L79.7792 96.103ZM71.8861 94.0617C70.5647 93.6818 69.2697 93.2885 68.0003 92.8814L67.3895 94.7859C68.6789 95.1994 69.9934 95.5985 71.3334 95.9838L71.8861 94.0617ZM64.1602 91.5795C62.87 91.1173 61.6077 90.639 60.3725 90.144L59.6285 92.0005C60.8875 92.505 62.173 92.9921 63.4857 93.4624L64.1602 91.5795ZM56.6463 88.5628C55.3987 88.0026 54.1803 87.423 52.9903 86.8233L52.0903 88.6093C53.3077 89.2228 54.553 89.8152 55.827 90.3873L56.6463 88.5628ZM49.4205 84.9161C48.236 84.2454 47.0812 83.552 45.9549 82.835L44.8808 84.5221C46.0368 85.2581 47.2212 85.9692 48.4352 86.6565L49.4205 84.9161ZM42.6077 80.5746C41.5079 79.787 40.4368 78.9735 39.3933 78.133L38.1388 79.6907C39.2119 80.555 40.3131 81.3914 41.4433 82.2007L42.6077 80.5746ZM36.3245 75.5123C35.3275 74.6098 34.3571 73.6789 33.412 72.7186L31.9866 74.1215C32.9585 75.1091 33.9567 76.0667 34.9823 76.9951L36.3245 75.5123ZM30.6632 69.762C29.7799 68.7565 28.9198 67.7213 28.0819 66.6554L26.5096 67.8914C27.3696 68.9854 28.2529 70.0486 29.1607 71.0819L30.6632 69.762ZM25.6681 63.414C24.8989 62.3238 24.1493 61.204 23.4183 60.0537L21.7303 61.1264C22.4782 62.3032 23.2457 63.4499 24.034 64.567L25.6681 63.414ZM21.3258 56.5903C20.6621 55.4351 20.0144 54.2514 19.3818 53.0382L17.6084 53.9629C18.2532 55.1994 18.9139 56.4071 19.5916 57.5866L21.3258 56.5903ZM17.576 49.4102C17.0039 48.2062 16.4445 46.9753 15.8972 45.7167L14.0631 46.5143C14.619 47.7925 15.1876 49.0438 15.7696 50.2686L17.576 49.4102ZM14.334 41.9659C13.8378 40.7241 13.3517 39.457 12.8752 38.1641L10.9986 38.8558C11.4811 40.1649 11.9736 41.4488 12.4767 42.708L14.334 41.9659ZM11.5101 34.3153C11.0794 33.0537 10.6566 31.7689 10.241 30.4605L8.33486 31.0659C8.75454 32.3873 9.18185 33.6857 9.61735 34.9615L11.5101 34.3153ZM9.0484 26.5739C8.66708 25.2882 8.29191 23.9809 7.92241 22.6517L5.99547 23.1873C6.36791 24.5272 6.74624 25.8454 7.13095 27.1426L9.0484 26.5739ZM6.85532 18.6926C6.51785 17.4017 6.18502 16.0912 5.85645 14.7606L3.91477 15.24C4.24542 16.5791 4.58049 17.8985 4.92035 19.1985L6.85532 18.6926ZM4.90342 10.795C4.59557 9.47936 4.29133 8.14499 3.99032 6.7916L2.03802 7.22581C2.34055 8.58604 2.64643 9.92757 2.95601 11.2507L4.90342 10.795ZM3.12806 2.8219C2.98577 2.15137 2.84415 1.47636 2.70317 0.796835L0.744881 1.20311C0.886446 1.88552 1.02869 2.56351 1.17163 3.23708L3.12806 2.8219Z" fill="url(#paint0_linear_19_91)"/>
<defs>
<linearGradient id="paint0_linear_19_91" x1="102.078" y1="100.647" x2="2.07759" y2="0.646529" gradientUnits="userSpaceOnUse">
<stop stop-color="#666666"/>
<stop offset="1"/>
</linearGradient>
</defs>
</svg>
