<svg width="76" height="94" viewBox="0 0 76 94" fill="none" xmlns="http://www.w3.org/2000/svg">
<path id="Arrow 2" d="M69.0953 0.79289C68.7047 0.402364 68.0716 0.40237 67.681 0.792891L61.3171 7.15686C60.9266 7.54738 60.9265 8.18054 61.3171 8.57106C61.7076 8.96159 62.3408 8.96159 62.7313 8.57106L68.3881 2.91421L74.045 8.57106C74.4355 8.96159 75.0687 8.96159 75.4592 8.57106C75.8497 8.18054 75.8497 7.54738 75.4592 7.15686L69.0953 0.79289ZM2.58096e-08 93.5C0.835015 93.5 1.66368 93.4838 2.48592 93.4518L2.40806 91.4533C1.61192 91.4843 0.809222 91.5 -2.58096e-08 91.5L2.58096e-08 93.5ZM7.41586 93.0623C9.07441 92.8634 10.7043 92.5979 12.3049 92.2683L11.9015 90.3094C10.3558 90.6277 8.78109 90.8842 7.17771 91.0765L7.41586 93.0623ZM17.1145 91.061C18.7084 90.5871 20.27 90.0474 21.7987 89.4447L21.0651 87.5841C19.5898 88.1658 18.0828 88.6866 16.5446 89.144L17.1145 91.061ZM26.3255 87.4303C27.8067 86.6935 29.2532 85.8951 30.6644 85.038L29.6262 83.3286C28.2623 84.1569 26.865 84.9282 25.4348 85.6396L26.3255 87.4303ZM34.788 82.2966C36.1206 81.3309 37.4176 80.3102 38.6785 79.2376L37.3826 77.7143C36.1604 78.754 34.9041 79.7425 33.6143 80.6772L34.788 82.2966ZM42.3213 75.8976C43.4879 74.7467 44.6193 73.5487 45.7148 72.3063L44.2147 70.9836C43.1491 72.192 42.0496 73.3562 40.9167 74.4738L42.3213 75.8976ZM48.858 68.4949C49.8554 67.2023 50.8184 65.8703 51.7465 64.5015L50.0912 63.3791C49.1854 64.7149 48.2464 66.0137 47.2746 67.2731L48.858 68.4949ZM54.392 60.3438C55.2282 58.9427 56.0311 57.5089 56.8002 56.0449L55.0296 55.1148C54.277 56.5474 53.4919 57.9495 52.6746 59.3188L54.392 60.3438ZM58.9775 51.6254C59.6598 50.1465 60.3098 48.6411 60.9272 47.1114L59.0726 46.3629C58.4671 47.8631 57.8299 49.3387 57.1614 50.7875L58.9775 51.6254ZM62.6603 42.5107C63.1994 40.9733 63.7071 39.4146 64.183 37.8366L62.2682 37.2591C61.8007 38.8092 61.3021 40.3398 60.7729 41.8489L62.6603 42.5107ZM65.5012 33.1013C65.905 31.5222 66.278 29.9264 66.62 28.3158L64.6636 27.9004C64.3273 29.4845 63.9605 31.0536 63.5635 32.6059L65.5012 33.1013ZM67.5442 23.4897C67.8188 21.8838 68.0632 20.2653 68.2771 18.636L66.2941 18.3757C66.0836 19.9795 65.843 21.5724 65.5728 23.1526L67.5442 23.4897ZM68.8233 13.7578C68.9739 12.1343 69.0948 10.502 69.1854 8.8625L67.1884 8.75214C67.0992 10.3669 66.9802 11.9744 66.8318 13.5729L68.8233 13.7578ZM69.3656 3.95723C69.3806 3.13946 69.3881 2.32031 69.3881 1.5L67.3881 1.5C67.3881 2.3081 67.3807 3.11502 67.366 3.92057L69.3656 3.95723ZM69.0953 0.79289C68.7047 0.402364 68.0716 0.40237 67.681 0.792891L61.3171 7.15686C60.9266 7.54738 60.9265 8.18054 61.3171 8.57106C61.7076 8.96159 62.3408 8.96159 62.7313 8.57106L68.3881 2.91421L74.045 8.57106C74.4355 8.96159 75.0687 8.96159 75.4592 8.57106C75.8497 8.18054 75.8497 7.54738 75.4592 7.15686L69.0953 0.79289ZM2.58096e-08 93.5C0.835015 93.5 1.66368 93.4838 2.48592 93.4518L2.40806 91.4533C1.61192 91.4843 0.809222 91.5 -2.58096e-08 91.5L2.58096e-08 93.5ZM7.41586 93.0623C9.07441 92.8634 10.7043 92.5979 12.3049 92.2683L11.9015 90.3094C10.3558 90.6277 8.78109 90.8842 7.17771 91.0765L7.41586 93.0623ZM17.1145 91.061C18.7084 90.5871 20.27 90.0474 21.7987 89.4447L21.0651 87.5841C19.5898 88.1658 18.0828 88.6866 16.5446 89.144L17.1145 91.061ZM26.3255 87.4303C27.8067 86.6935 29.2532 85.8951 30.6644 85.038L29.6262 83.3286C28.2623 84.1569 26.865 84.9282 25.4348 85.6396L26.3255 87.4303ZM34.788 82.2966C36.1206 81.3309 37.4176 80.3102 38.6785 79.2376L37.3826 77.7143C36.1604 78.754 34.9041 79.7425 33.6143 80.6772L34.788 82.2966ZM42.3213 75.8976C43.4879 74.7467 44.6193 73.5487 45.7148 72.3063L44.2147 70.9836C43.1491 72.192 42.0496 73.3562 40.9167 74.4738L42.3213 75.8976ZM48.858 68.4949C49.8554 67.2023 50.8184 65.8703 51.7465 64.5015L50.0912 63.3791C49.1854 64.7149 48.2464 66.0137 47.2746 67.2731L48.858 68.4949ZM54.392 60.3438C55.2282 58.9427 56.0311 57.5089 56.8002 56.0449L55.0296 55.1148C54.277 56.5474 53.4919 57.9495 52.6746 59.3188L54.392 60.3438ZM58.9775 51.6254C59.6598 50.1465 60.3098 48.6411 60.9272 47.1114L59.0726 46.3629C58.4671 47.8631 57.8299 49.3387 57.1614 50.7875L58.9775 51.6254ZM62.6603 42.5107C63.1994 40.9733 63.7071 39.4146 64.183 37.8366L62.2682 37.2591C61.8007 38.8092 61.3021 40.3398 60.7729 41.8489L62.6603 42.5107ZM65.5012 33.1013C65.905 31.5222 66.278 29.9264 66.62 28.3158L64.6636 27.9004C64.3273 29.4845 63.9605 31.0536 63.5635 32.6059L65.5012 33.1013ZM67.5442 23.4897C67.8188 21.8838 68.0632 20.2653 68.2771 18.636L66.2941 18.3757C66.0836 19.9795 65.843 21.5724 65.5728 23.1526L67.5442 23.4897ZM68.8233 13.7578C68.9739 12.1343 69.0948 10.502 69.1854 8.8625L67.1884 8.75214C67.0992 10.3669 66.9802 11.9744 66.8318 13.5729L68.8233 13.7578ZM69.3656 3.95723C69.3806 3.13946 69.3881 2.32031 69.3881 1.5L67.3881 1.5C67.3881 2.3081 67.3807 3.11502 67.366 3.92057L69.3656 3.95723Z" fill="url(#paint0_linear_361_402)"/>
<defs>
<linearGradient id="paint0_linear_361_402" x1="13.006" y1="100.009" x2="69.5072" y2="2.14607" gradientUnits="userSpaceOnUse">
<stop offset="0.697105" stop-color="#888888"/>
<stop offset="1"/>
</linearGradient>
</defs>
</svg>
