<svg width="130" height="16" viewBox="0 0 130 16" fill="none" xmlns="http://www.w3.org/2000/svg">
<path id="Arrow 7" d="M129.707 8.70711C130.098 8.31658 130.098 7.68342 129.707 7.29289L123.343 0.928932C122.953 0.538408 122.319 0.538408 121.929 0.928932C121.538 1.31946 121.538 1.95262 121.929 2.34315L127.586 8L121.929 13.6569C121.538 14.0474 121.538 14.6805 121.929 15.0711C122.319 15.4616 122.953 15.4616 123.343 15.0711L129.707 8.70711ZM0 9H2.01562V7H0V9ZM6.04688 9H10.0781V7H6.04688V9ZM14.1094 9H18.1406V7H14.1094V9ZM22.1719 9H26.2031V7H22.1719V9ZM30.2344 9H34.2656V7H30.2344V9ZM38.2969 9H42.3281V7H38.2969V9ZM46.3594 9H50.3906V7H46.3594V9ZM54.4219 9H58.4531V7H54.4219V9ZM62.4844 9H66.5156V7H62.4844V9ZM70.5469 9H74.5781V7H70.5469V9ZM78.6094 9H82.6406V7H78.6094V9ZM86.6719 9H90.7031V7H86.6719V9ZM94.7344 9H98.7656V7H94.7344V9ZM102.797 9H106.828V7H102.797V9ZM110.859 9H114.891V7H110.859V9ZM118.922 9H122.953V7H118.922V9ZM126.984 9H129V7H126.984V9ZM129.707 8.70711C130.098 8.31658 130.098 7.68342 129.707 7.29289L123.343 0.928932C122.953 0.538408 122.319 0.538408 121.929 0.928932C121.538 1.31946 121.538 1.95262 121.929 2.34315L127.586 8L121.929 13.6569C121.538 14.0474 121.538 14.6805 121.929 15.0711C122.319 15.4616 122.953 15.4616 123.343 15.0711L129.707 8.70711ZM0 9H2.01562V7H0V9ZM6.04688 9H10.0781V7H6.04688V9ZM14.1094 9H18.1406V7H14.1094V9ZM22.1719 9H26.2031V7H22.1719V9ZM30.2344 9H34.2656V7H30.2344V9ZM38.2969 9H42.3281V7H38.2969V9ZM46.3594 9H50.3906V7H46.3594V9ZM54.4219 9H58.4531V7H54.4219V9ZM62.4844 9H66.5156V7H62.4844V9ZM70.5469 9H74.5781V7H70.5469V9ZM78.6094 9H82.6406V7H78.6094V9ZM86.6719 9H90.7031V7H86.6719V9ZM94.7344 9H98.7656V7H94.7344V9ZM102.797 9H106.828V7H102.797V9ZM110.859 9H114.891V7H110.859V9ZM118.922 9H122.953V7H118.922V9ZM126.984 9H129V7H126.984V9Z" fill="url(#paint0_linear_19_88)"/>
<defs>
<linearGradient id="paint0_linear_19_88" x1="0" y1="8.5" x2="129" y2="8.5" gradientUnits="userSpaceOnUse">
<stop stop-color="#666666"/>
<stop offset="1"/>
</linearGradient>
</defs>
</svg>
