<svg width="130" height="16" viewBox="0 0 130 16" fill="none" xmlns="http://www.w3.org/2000/svg">
<path id="Arrow 9" d="M0.292893 7.29289C-0.0976311 7.68342 -0.0976311 8.31658 0.292893 8.70711L6.65685 15.0711C7.04738 15.4616 7.68054 15.4616 8.07107 15.0711C8.46159 14.6805 8.46159 14.0474 8.07107 13.6569L2.41421 8L8.07107 2.34315C8.46159 1.95262 8.46159 1.31946 8.07107 0.928932C7.68054 0.538408 7.04738 0.538408 6.65685 0.928932L0.292893 7.29289ZM1 9H3.01562V7H1V9ZM7.04688 9H11.0781V7H7.04688V9ZM15.1094 9H19.1406V7H15.1094V9ZM23.1719 9H27.2031V7H23.1719V9ZM31.2344 9H35.2656V7H31.2344V9ZM39.2969 9H43.3281V7H39.2969V9ZM47.3594 9H51.3906V7H47.3594V9ZM55.4219 9H59.4531V7H55.4219V9ZM63.4844 9H67.5156V7H63.4844V9ZM71.5469 9H75.5781V7H71.5469V9ZM79.6094 9H83.6406V7H79.6094V9ZM87.6719 9H91.7031V7H87.6719V9ZM95.7344 9H99.7656V7H95.7344V9ZM103.797 9H107.828V7H103.797V9ZM111.859 9H115.891V7H111.859V9ZM119.922 9H123.953V7H119.922V9ZM127.984 9H130V7H127.984V9ZM0.292893 7.29289C-0.0976311 7.68342 -0.0976311 8.31658 0.292893 8.70711L6.65685 15.0711C7.04738 15.4616 7.68054 15.4616 8.07107 15.0711C8.46159 14.6805 8.46159 14.0474 8.07107 13.6569L2.41421 8L8.07107 2.34315C8.46159 1.95262 8.46159 1.31946 8.07107 0.928932C7.68054 0.538408 7.04738 0.538408 6.65685 0.928932L0.292893 7.29289ZM1 9H3.01562V7H1V9ZM7.04688 9H11.0781V7H7.04688V9ZM15.1094 9H19.1406V7H15.1094V9ZM23.1719 9H27.2031V7H23.1719V9ZM31.2344 9H35.2656V7H31.2344V9ZM39.2969 9H43.3281V7H39.2969V9ZM47.3594 9H51.3906V7H47.3594V9ZM55.4219 9H59.4531V7H55.4219V9ZM63.4844 9H67.5156V7H63.4844V9ZM71.5469 9H75.5781V7H71.5469V9ZM79.6094 9H83.6406V7H79.6094V9ZM87.6719 9H91.7031V7H87.6719V9ZM95.7344 9H99.7656V7H95.7344V9ZM103.797 9H107.828V7H103.797V9ZM111.859 9H115.891V7H111.859V9ZM119.922 9H123.953V7H119.922V9ZM127.984 9H130V7H127.984V9Z" fill="url(#paint0_linear_19_90)"/>
<defs>
<linearGradient id="paint0_linear_19_90" x1="1" y1="8.5" x2="130" y2="8.5" gradientUnits="userSpaceOnUse">
<stop stop-color="#666666"/>
<stop offset="1"/>
</linearGradient>
</defs>
</svg>
