<svg width="24" height="24" viewBox="0 0 24 24" fill="none" xmlns="http://www.w3.org/2000/svg">
<g id="align_arrow_right_line" clip-path="url(#clip0_283_446)">
<g id="Group">
<path id="Vector" d="M15.297 7.05C15.204 7.14287 15.1303 7.25316 15.0799 7.37456C15.0296 7.49596 15.0037 7.62608 15.0037 7.7575C15.0037 7.88892 15.0296 8.01904 15.0799 8.14044C15.1303 8.26184 15.204 8.37213 15.297 8.465L17.833 11H9C8.73478 11 8.48043 11.1054 8.29289 11.2929C8.10536 11.4804 8 11.7348 8 12C8 12.2652 8.10536 12.5196 8.29289 12.7071C8.48043 12.8946 8.73478 13 9 13H17.833L15.297 15.536C15.1095 15.7236 15.0042 15.9781 15.0043 16.2434C15.0044 16.5086 15.1099 16.763 15.2975 16.9505C15.4851 17.138 15.7396 17.2433 16.0049 17.2432C16.2701 17.2431 16.5245 17.1376 16.712 16.95L20.954 12.707C21.1415 12.5195 21.2468 12.2652 21.2468 12C21.2468 11.7348 21.1415 11.4805 20.954 11.293L16.712 7.05C16.6191 6.95702 16.5088 6.88326 16.3874 6.83294C16.266 6.78262 16.1359 6.75671 16.0045 6.75671C15.8731 6.75671 15.743 6.78262 15.6216 6.83294C15.5002 6.88326 15.3899 6.95702 15.297 7.05ZM3 19C3 19.2652 3.10536 19.5196 3.29289 19.7071C3.48043 19.8946 3.73478 20 4 20C4.26522 20 4.51957 19.8946 4.70711 19.7071C4.89464 19.5196 5 19.2652 5 19V5C5 4.73478 4.89464 4.48043 4.70711 4.29289C4.51957 4.10536 4.26522 4 4 4C3.73478 4 3.48043 4.10536 3.29289 4.29289C3.10536 4.48043 3 4.73478 3 5V19Z" fill="black"/>
</g>
</g>
<defs>
<clipPath id="clip0_283_446">
<rect width="24" height="24" fill="white"/>
</clipPath>
</defs>
</svg>
