<svg width="1198" height="307" viewBox="0 0 1198 307" fill="none" xmlns="http://www.w3.org/2000/svg">
<path d="M250.5 131L363 2H503.5L705 297H862L939.5 181H1008.5L1070 96H1161.5" stroke="black" stroke-opacity="0.6" stroke-width="2.5" stroke-dasharray="15 15"/>
<path d="M1177 305V306.25H1177.71L1178.07 305.646L1177 305ZM902.5 305L901.455 305.685L901.825 306.25H902.5V305ZM862.5 244L861.43 244.645L861.442 244.666L861.455 244.685L862.5 244ZM779 105.5L780.07 104.855L779.706 104.25H779V105.5ZM612.5 105.5V104.25H611.775L611.415 104.88L612.5 105.5ZM498.5 305V306.25H499.225L499.585 305.62L498.5 305ZM245.5 305L244.491 305.738L244.865 306.25H245.5V305ZM169.5 201L168.478 201.72L168.485 201.729L168.491 201.738L169.5 201ZM93 92.5L94.0216 91.7797L93.6481 91.25H93V92.5ZM29 92.5L28.1486 93.4152L28.5085 93.75H29V92.5ZM0.833333 72.5C0.833333 76.1819 3.8181 79.1667 7.5 79.1667C11.1819 79.1667 14.1667 76.1819 14.1667 72.5C14.1667 68.8181 11.1819 65.8333 7.5 65.8333C3.8181 65.8333 0.833333 68.8181 0.833333 72.5ZM6.64862 73.4152L12.0236 78.4152L13.7264 76.5848L8.35138 71.5848L6.64862 73.4152ZM22.7736 88.4152L28.1486 93.4152L29.8514 91.5848L24.4764 86.5848L22.7736 88.4152ZM29 93.75H37V91.25H29V93.75ZM53 93.75H69V91.25H53V93.75ZM85 93.75H93V91.25H85V93.75ZM91.9784 93.2203L96.7597 100.002L98.8028 98.561L94.0216 91.7797L91.9784 93.2203ZM106.322 113.564L115.885 127.127L117.928 125.686L108.365 112.123L106.322 113.564ZM125.447 140.689L135.01 154.252L137.053 152.811L127.49 139.248L125.447 140.689ZM144.572 167.814L154.135 181.377L156.178 179.936L146.615 166.373L144.572 167.814ZM163.697 194.939L168.478 201.72L170.522 200.28L165.74 193.498L163.697 194.939ZM168.491 201.738L173.241 208.238L175.259 206.762L170.509 200.262L168.491 201.738ZM182.741 221.238L192.241 234.238L194.259 232.762L184.759 219.762L182.741 221.238ZM201.741 247.238L211.241 260.238L213.259 258.762L203.759 245.762L201.741 247.238ZM220.741 273.238L230.241 286.238L232.259 284.762L222.759 271.762L220.741 273.238ZM239.741 299.238L244.491 305.738L246.509 304.262L241.759 297.762L239.741 299.238ZM245.5 306.25H253.406V303.75H245.5V306.25ZM269.219 306.25H285.031V303.75H269.219V306.25ZM300.844 306.25H316.656V303.75H300.844V306.25ZM332.469 306.25H348.281V303.75H332.469V306.25ZM364.094 306.25H379.906V303.75H364.094V306.25ZM395.719 306.25H411.531V303.75H395.719V306.25ZM427.344 306.25H443.156V303.75H427.344V306.25ZM458.969 306.25H474.781V303.75H458.969V306.25ZM490.594 306.25H498.5V303.75H490.594V306.25ZM499.585 305.62L503.148 299.386L500.977 298.145L497.415 304.38L499.585 305.62ZM510.273 286.917L517.398 274.448L515.227 273.208L508.102 285.677L510.273 286.917ZM524.523 261.98L531.648 249.511L529.477 248.27L522.352 260.739L524.523 261.98ZM538.773 237.042L545.898 224.573L543.727 223.333L536.602 235.802L538.773 237.042ZM553.023 212.105L560.148 199.636L557.977 198.395L550.852 210.864L553.023 212.105ZM567.273 187.167L574.398 174.698L572.227 173.458L565.102 185.927L567.273 187.167ZM581.523 162.23L588.648 149.761L586.477 148.52L579.352 160.989L581.523 162.23ZM595.773 137.292L602.898 124.823L600.727 123.583L593.602 136.052L595.773 137.292ZM610.023 112.355L613.585 106.12L611.415 104.88L607.852 111.114L610.023 112.355ZM612.5 106.75H619.438V104.25H612.5V106.75ZM633.312 106.75H647.188V104.25H633.312V106.75ZM661.062 106.75H674.938V104.25H661.062V106.75ZM688.812 106.75H702.688V104.25H688.812V106.75ZM716.562 106.75H730.438V104.25H716.562V106.75ZM744.312 106.75H758.188V104.25H744.312V106.75ZM772.062 106.75H779V104.25H772.062V106.75ZM777.93 106.145L782.104 113.07L784.245 111.78L780.07 104.855L777.93 106.145ZM790.455 126.92L798.805 140.77L800.945 139.48L792.596 125.63L790.455 126.92ZM807.154 154.62L815.505 168.47L817.646 167.18L809.295 153.33L807.154 154.62ZM823.854 182.32L832.204 196.17L834.346 194.88L825.995 181.03L823.854 182.32ZM840.555 210.02L848.904 223.87L851.045 222.58L842.695 208.73L840.555 210.02ZM857.255 237.72L861.43 244.645L863.57 243.355L859.396 236.43L857.255 237.72ZM861.455 244.685L866.455 252.31L868.545 250.94L863.545 243.315L861.455 244.685ZM876.455 267.56L886.455 282.81L888.545 281.44L878.545 266.19L876.455 267.56ZM896.455 298.06L901.455 305.685L903.545 304.315L898.545 296.69L896.455 298.06ZM902.5 306.25H909.625V303.75H902.5V306.25ZM923.875 306.25H938.125V303.75H923.875V306.25ZM952.375 306.25H966.625V303.75H952.375V306.25ZM980.875 306.25H995.125V303.75H980.875V306.25ZM1009.38 306.25H1023.62V303.75H1009.38V306.25ZM1037.88 306.25H1052.12V303.75H1037.88V306.25ZM1066.38 306.25H1080.62V303.75H1066.38V306.25ZM1094.88 306.25H1102V303.75H1094.88V306.25ZM1102 306.25H1108.25V303.75H1102V306.25ZM1120.75 306.25H1133.25V303.75H1120.75V306.25ZM1145.75 306.25H1158.25V303.75H1145.75V306.25ZM1170.75 306.25H1177V303.75H1170.75V306.25ZM1178.07 305.646L1182.82 297.771L1180.68 296.479L1175.93 304.354L1178.07 305.646ZM1192.32 282.021L1197.07 274.146L1194.93 272.854L1190.18 280.729L1192.32 282.021Z" fill="black" fill-opacity="0.6"/>
</svg>
