<svg width="249" height="971" viewBox="0 0 249 971" fill="none" xmlns="http://www.w3.org/2000/svg">
<path d="M106.137 768.226L1.50781 676.98L1.5078 563.024L240.775 399.592L240.775 272.253L146.691 209.394L146.691 153.43L77.749 103.549L77.749 29.335" stroke="black" stroke-opacity="0.6" stroke-width="2.02769" stroke-dasharray="12.17 12.17"/>
<path d="M247.263 16.7634L248.277 16.7634L248.277 16.1909L247.786 15.8953L247.263 16.7634ZM247.263 239.404L247.819 240.252L248.277 239.952L248.277 239.404L247.263 239.404ZM197.787 271.847L198.311 272.715L198.327 272.705L198.343 272.695L197.787 271.847ZM85.453 339.572L84.9295 338.704L84.4392 338.999L84.4392 339.572L85.453 339.572ZM85.453 474.616L84.4392 474.616L84.4392 475.205L84.95 475.497L85.453 474.616ZM247.263 567.079L248.277 567.079L248.277 566.491L247.766 566.199L247.263 567.079ZM247.263 772.282L247.861 773.1L248.277 772.796L248.277 772.282L247.263 772.282ZM162.911 833.923L163.495 834.752L163.502 834.747L163.509 834.742L162.911 833.923ZM74.909 895.971L74.3248 895.142L73.8952 895.445L73.8952 895.971L74.909 895.971ZM74.909 947.88L75.6514 948.57L75.9229 948.278L75.9229 947.88L74.909 947.88ZM58.6875 970.725C61.6738 970.725 64.0947 968.304 64.0947 965.318C64.0947 962.332 61.6738 959.911 58.6875 959.911C55.7012 959.911 53.2803 962.332 53.2803 965.318C53.2803 968.304 55.7012 970.725 58.6875 970.725ZM59.4298 966.008L63.4852 961.649L62.0006 960.268L57.9452 964.627L59.4298 966.008ZM71.596 952.93L75.6514 948.57L74.1667 947.189L70.1113 951.549L71.596 952.93ZM75.9229 947.88L75.9229 941.391L73.8952 941.391L73.8952 947.88L75.9229 947.88ZM75.9229 928.414L75.9229 915.437L73.8952 915.437L73.8952 928.414L75.9229 928.414ZM75.9229 902.459L75.9229 895.971L73.8952 895.971L73.8952 902.459L75.9229 902.459ZM75.4933 896.799L80.9934 892.921L79.8249 891.264L74.3248 895.142L75.4933 896.799ZM91.9936 885.166L102.994 877.41L101.825 875.752L90.8252 883.508L91.9936 885.166ZM113.994 869.654L124.994 861.898L123.826 860.241L112.826 867.996L113.994 869.654ZM135.995 854.142L146.995 846.386L145.826 844.729L134.826 852.485L135.995 854.142ZM157.995 838.63L163.495 834.752L162.327 833.095L156.827 836.973L157.995 838.63ZM163.509 834.742L168.781 830.889L167.585 829.252L162.313 833.105L163.509 834.742ZM179.325 823.184L189.869 815.479L188.673 813.842L178.129 821.547L179.325 823.184ZM200.413 807.774L210.957 800.068L209.761 798.431L199.217 806.137L200.413 807.774ZM221.501 792.363L232.045 784.658L230.849 783.021L220.305 790.726L221.501 792.363ZM242.589 776.953L247.861 773.1L246.665 771.463L241.393 775.316L242.589 776.953ZM248.277 772.282L248.277 765.869L246.249 765.869L246.249 772.282L248.277 772.282ZM248.277 753.044L248.277 740.219L246.249 740.219L246.249 753.044L248.277 753.044ZM248.277 727.394L248.277 714.568L246.249 714.568L246.249 727.394L248.277 727.394ZM248.277 701.743L248.277 688.918L246.249 688.918L246.249 701.743L248.277 701.743ZM248.277 676.093L248.277 663.268L246.249 663.268L246.249 676.093L248.277 676.093ZM248.277 650.443L248.277 637.617L246.249 637.617L246.249 650.443L248.277 650.443ZM248.277 624.792L248.277 611.967L246.249 611.967L246.249 624.792L248.277 624.792ZM248.277 599.142L248.277 586.317L246.249 586.317L246.249 599.142L248.277 599.142ZM248.277 573.492L248.277 567.079L246.249 567.079L246.249 573.492L248.277 573.492ZM247.766 566.199L242.709 563.309L241.703 565.07L246.76 567.959L247.766 566.199ZM232.596 557.53L222.483 551.752L221.477 553.512L231.59 559.291L232.596 557.53ZM212.37 545.973L202.257 540.194L201.251 541.954L211.364 547.733L212.37 545.973ZM192.144 534.415L182.031 528.636L181.025 530.396L191.138 536.175L192.144 534.415ZM171.917 522.857L161.804 517.078L160.798 518.838L170.911 524.617L171.917 522.857ZM151.691 511.299L141.578 505.52L140.572 507.281L150.685 513.06L151.691 511.299ZM131.465 499.741L121.352 493.962L120.346 495.723L130.459 501.502L131.465 499.741ZM111.239 488.183L101.126 482.404L100.12 484.165L110.233 489.944L111.239 488.183ZM91.0126 476.626L85.956 473.736L84.95 475.497L90.0066 478.386L91.0126 476.626ZM86.4669 474.616L86.4669 468.989L84.4392 468.989L84.4392 474.616L86.4669 474.616ZM86.4669 457.736L86.4669 446.482L84.4392 446.482L84.4392 457.736L86.4669 457.736ZM86.4669 435.228L86.4669 423.975L84.4392 423.975L84.4392 435.228L86.4669 435.228ZM86.4669 412.721L86.4669 401.467L84.4392 401.467L84.4392 412.721L86.4669 412.721ZM86.4669 390.214L86.4669 378.96L84.4392 378.96L84.4392 390.214L86.4669 390.214ZM86.4669 367.706L86.4669 356.453L84.4392 356.453L84.4392 367.706L86.4669 367.706ZM86.4669 345.199L86.4669 339.572L84.4392 339.572L84.4392 345.199L86.4669 345.199ZM85.9765 340.44L91.5932 337.054L90.5463 335.318L84.9295 338.704L85.9765 340.44ZM102.827 330.282L114.06 323.509L113.013 321.773L101.78 328.545L102.827 330.282ZM125.293 316.737L136.527 309.964L135.48 308.228L124.247 315L125.293 316.737ZM147.76 303.192L158.994 296.419L157.947 294.683L146.713 301.455L147.76 303.192ZM170.227 289.647L181.46 282.874L180.414 281.138L169.18 287.91L170.227 289.647ZM192.694 276.102L198.311 272.715L197.264 270.979L191.647 274.365L192.694 276.102ZM198.343 272.695L204.528 268.64L203.416 266.944L197.231 270.999L198.343 272.695ZM216.896 260.529L229.265 252.418L228.154 250.722L215.785 258.833L216.896 260.529ZM241.634 244.307L247.819 240.252L246.707 238.556L240.522 242.612L241.634 244.307ZM248.277 239.404L248.277 233.625L246.249 233.625L246.249 239.404L248.277 239.404ZM248.277 222.067L248.277 210.509L246.249 210.509L246.249 222.067L248.277 222.067ZM248.277 198.952L248.277 187.394L246.249 187.394L246.249 198.952L248.277 198.952ZM248.277 175.836L248.277 164.278L246.249 164.278L246.249 175.836L248.277 175.836ZM248.277 152.72L248.277 141.162L246.249 141.162L246.249 152.72L248.277 152.72ZM248.277 129.604L248.277 118.047L246.249 118.047L246.249 129.604L248.277 129.604ZM248.277 106.489L248.277 94.931L246.249 94.931L246.249 106.489L248.277 106.489ZM248.277 83.3731L248.277 77.5942L246.249 77.5942L246.249 83.3731L248.277 83.3731ZM248.277 77.5942L248.277 72.5249L246.249 72.5249L246.249 77.5942L248.277 77.5942ZM248.277 62.3865L248.277 52.248L246.249 52.248L246.249 62.3865L248.277 62.3865ZM248.277 42.1095L248.277 31.9711L246.249 31.9711L246.249 42.1095L248.277 42.1095ZM248.277 21.8326L248.277 16.7634L246.249 16.7634L246.249 21.8326L248.277 21.8326ZM247.786 15.8953L241.399 12.0426L240.352 13.7789L246.739 17.6315L247.786 15.8953ZM228.625 4.33739L222.238 0.484795L221.19 2.22106L227.578 6.07366L228.625 4.33739Z" fill="black" fill-opacity="0.6"/>
</svg>
