<svg width="1368" height="409" viewBox="0 0 1368 409" fill="none" xmlns="http://www.w3.org/2000/svg">
<g clip-path="url(#clip0_1029_1453)">
<path d="M509.04 164.3H453.75L443.23 193.37H425.75L472.3 69.9399H490.67L537.05 193.37H519.57L509.04 164.3ZM504.4 151.63L481.39 88.1299L458.38 151.63H504.4Z" fill="#525252"/>
<path d="M665.29 217.81L639.96 192.3C634.01 193.96 627.95 194.8 621.77 194.8C610.12 194.8 599.56 192.07 590.11 186.59C580.66 181.12 573.25 173.48 567.9 163.67C562.55 153.86 559.87 142.77 559.87 130.41C559.87 118.04 562.55 106.95 567.9 97.14C573.25 87.33 580.65 79.69 590.11 74.22C599.56 68.75 610.12 66.01 621.77 66.01C633.42 66.01 643.92 68.75 653.25 74.22C662.58 79.69 669.93 87.33 675.28 97.14C680.63 106.95 683.31 118.04 683.31 130.41C683.31 142.9 680.63 154.04 675.28 163.85C669.93 173.66 662.55 181.24 653.16 186.59L685.8 217.81H665.29ZM582.44 156.45C586.3 163.94 591.65 169.68 598.49 173.66C605.33 177.65 613.09 179.63 621.77 179.63C630.33 179.63 638.03 177.61 644.87 173.57C651.71 169.53 657.06 163.79 660.92 156.36C664.78 148.93 666.72 140.28 666.72 130.41C666.72 120.42 664.79 111.71 660.92 104.28C657.05 96.85 651.7 91.14 644.87 87.16C638.03 83.18 630.33 81.18 621.77 81.18C613.09 81.18 605.33 83.17 598.49 87.16C591.65 91.15 586.3 96.85 582.44 104.28C578.58 111.71 576.64 120.42 576.64 130.41C576.64 140.28 578.57 148.96 582.44 156.45Z" fill="#525252"/>
<path d="M731.28 67.6201V143.07C731.28 155.44 734.01 164.56 739.49 170.45C744.96 176.34 752.51 179.28 762.14 179.28C771.65 179.28 779.09 176.31 784.44 170.36C789.79 164.42 792.47 155.32 792.47 143.07V67.6201H808.7V143.07C808.7 160.19 804.45 173.07 795.95 181.69C787.45 190.31 776.06 194.62 761.79 194.62C747.64 194.62 736.31 190.31 727.81 181.69C719.31 173.07 715.06 160.2 715.06 143.07V67.6201H731.28Z" fill="#525252"/>
<path d="M918.21 164.3H862.92L852.4 193.37H834.92L881.48 69.9399H899.85L946.22 193.37H928.74L918.21 164.3ZM913.58 151.63L890.57 88.1299L867.56 151.63H913.58Z" fill="#525252"/>
<path d="M1040.04 193.37L1007.22 142H989.56V193.37H973.33V67.6201H1014.71C1028.98 67.6201 1039.68 71.0401 1046.82 77.8801C1053.95 84.7201 1057.52 93.7801 1057.52 105.08C1057.52 115.31 1054.67 123.54 1048.96 129.78C1043.25 136.02 1034.99 139.92 1024.17 141.46L1058.42 193.37H1040.04ZM989.56 130.23H1013.28C1031.71 130.23 1040.93 122.15 1040.93 105.97C1040.93 89.8001 1031.71 81.7101 1013.28 81.7101H989.56V130.23Z" fill="#525252"/>
<path d="M1104.25 67.6201V193.37H1088.02V67.6201H1104.25Z" fill="#525252"/>
<path d="M1214.66 164.3H1159.37L1148.85 193.37H1131.37L1177.93 69.9399H1196.3L1242.67 193.37H1225.19L1214.66 164.3ZM1210.02 151.63L1187.01 88.1299L1164 151.63H1210.02Z" fill="#525252"/>
<path d="M1367.52 193.37H1351.29L1286.01 94.0201V193.37H1269.78V67.6201H1286.01L1351.29 167.15V67.6201H1367.52V193.37Z" fill="#525252"/>
<path d="M509.84 253.46C510.45 252.12 511.43 251.38 512.78 251.26C514.12 251.14 515.26 251.57 516.18 252.54C517.1 253.52 517.31 254.74 516.82 256.21C510.58 271.88 507.58 287.79 507.82 303.94C507.82 306.02 506.78 307.06 504.7 307.06C502.5 307.06 501.15 306.08 500.66 304.12C500.54 303.75 500.48 303.39 500.48 303.02C500.24 286.51 503.36 269.99 509.84 253.46ZM522.14 232.35C523 234.43 522.38 236.08 520.3 237.31L507.27 245.02C506.41 245.51 505.49 245.54 504.52 245.11C503.55 244.68 502.87 244.04 502.5 243.18C501.65 241.22 502.26 239.57 504.34 238.23L517.37 230.52C518.23 230.03 519.14 230 520.12 230.43C521.1 230.86 521.78 231.5 522.14 232.35Z" fill="#525252"/>
<path d="M672.48 259.52C673.46 258.42 674.68 258.02 676.15 258.33C677.62 258.64 678.6 259.34 679.09 260.44C679.58 261.54 679.39 262.64 678.54 263.75C659.94 283.94 642.26 295.2 625.49 297.53C618.15 298.51 612.15 297.53 607.5 294.59C606.4 293.86 605.23 292.82 604.01 291.47C602.78 290.13 601.74 288.87 600.89 287.71C600.03 286.55 599.05 285.29 597.95 283.95C596.85 282.6 595.81 281.6 594.83 280.92C593.85 280.25 592.66 279.76 591.25 279.45C589.84 279.14 588.4 279.42 586.93 280.27C585.34 281 583.72 282.32 582.07 284.22C580.42 286.12 578.95 287.96 577.66 289.73C576.37 291.5 575.03 293.1 573.62 294.5C572.21 295.91 570.59 296.46 568.75 296.15C566.92 295.85 564.96 294.53 562.88 292.2C562.02 291.35 561.14 290 560.22 288.16C559.3 286.32 558.5 284.52 557.83 282.75C557.16 280.98 556.3 279.14 555.26 277.24C554.22 275.34 553.21 273.91 552.23 272.93C551.25 271.95 549.96 271.31 548.38 271C546.79 270.7 545.01 271.28 543.06 272.75C540.37 274.46 537.03 278.59 533.05 285.14C529.07 291.69 526.23 295.82 524.52 297.53C523.29 298.75 521.95 298.91 520.48 297.99C519.01 297.07 518.34 295.82 518.46 294.23C519.93 278.81 523.17 263.58 528.19 248.52C528.68 247.17 529.6 246.41 530.94 246.23C532.28 246.05 533.42 246.47 534.34 247.51C535.26 248.55 535.47 249.81 534.98 251.28C532.04 260.33 529.72 269.88 528 279.91C529.84 276.85 531.42 274.38 532.77 272.48C534.12 270.59 535.74 268.57 537.64 266.42C539.54 264.28 541.49 262.78 543.51 261.92C545.53 261.06 547.58 260.88 549.66 261.37C550.15 261.49 550.67 261.68 551.22 261.92C551.77 262.16 552.29 262.41 552.78 262.65C553.27 262.89 553.76 263.26 554.25 263.75C554.74 264.24 555.14 264.64 555.44 264.94C555.74 265.25 556.14 265.74 556.63 266.41C557.12 267.08 557.49 267.57 557.73 267.88C557.97 268.19 558.34 268.74 558.83 269.53C559.32 270.33 559.62 270.84 559.75 271.09C559.87 271.33 560.18 271.86 560.67 272.65C561.16 273.45 561.4 273.91 561.4 274.03C562.25 275.5 563.23 277.27 564.34 279.35C565.44 281.43 566.11 282.81 566.36 283.48C566.6 284.16 567.19 284.83 568.1 285.5C569.02 286.18 569.57 286.48 569.75 286.42C569.93 286.36 570.61 285.93 571.77 285.13C572.93 284.34 573.91 283.48 574.71 282.56C575.51 281.64 576.88 280.14 578.84 278.06C581.53 275 583.89 272.86 585.91 271.64C587.93 270.42 590.1 270.08 592.43 270.63C594.75 271.18 597.32 272.8 600.14 275.49C601 276.35 602.56 278.24 604.82 281.18C607.08 284.12 608.95 286.14 610.42 287.24C613.11 289.08 616.08 290.12 619.32 290.36C622.56 290.61 625.41 290.36 627.86 289.63C630.31 288.9 633.24 287.8 636.67 286.33C649.05 281.06 660.98 272.13 672.48 259.52Z" fill="#525252"/>
<path d="M817.679 259.52C818.659 258.42 819.879 258.02 821.349 258.33C822.819 258.64 823.799 259.34 824.289 260.44C824.779 261.54 824.589 262.64 823.739 263.75C805.139 283.94 787.459 295.2 770.689 297.53C763.349 298.51 757.349 297.53 752.699 294.59C751.599 293.86 750.429 292.82 749.209 291.47C747.979 290.13 746.939 288.87 746.089 287.71C745.229 286.55 744.249 285.29 743.149 283.95C742.049 282.6 741.009 281.6 740.029 280.92C739.049 280.25 737.859 279.76 736.449 279.45C735.039 279.14 733.599 279.42 732.129 280.27C730.539 281 728.919 282.32 727.269 284.22C725.619 286.12 724.149 287.96 722.859 289.73C721.569 291.5 720.229 293.1 718.819 294.5C717.409 295.91 715.789 296.46 713.949 296.15C712.119 295.85 710.159 294.53 708.079 292.2C707.219 291.35 706.339 290 705.419 288.16C704.499 286.32 703.699 284.52 703.029 282.75C702.359 280.98 701.499 279.14 700.459 277.24C699.419 275.34 698.409 273.91 697.429 272.93C696.449 271.95 695.159 271.31 693.579 271C691.989 270.7 690.209 271.28 688.259 272.75C685.569 274.46 682.229 278.59 678.249 285.14C674.269 291.69 671.429 295.82 669.719 297.53C668.489 298.75 667.149 298.91 665.679 297.99C664.209 297.07 663.539 295.82 663.659 294.23C665.129 278.81 668.369 263.58 673.389 248.52C673.879 247.17 674.799 246.41 676.139 246.23C677.479 246.05 678.619 246.47 679.539 247.51C680.459 248.55 680.669 249.81 680.179 251.28C677.239 260.33 674.919 269.88 673.199 279.91C675.039 276.85 676.619 274.38 677.969 272.48C679.319 270.59 680.939 268.57 682.839 266.42C684.739 264.28 686.689 262.78 688.709 261.92C690.729 261.06 692.779 260.88 694.859 261.37C695.349 261.49 695.869 261.68 696.419 261.92C696.969 262.16 697.489 262.41 697.979 262.65C698.469 262.89 698.959 263.26 699.449 263.75C699.939 264.24 700.339 264.64 700.639 264.94C700.939 265.25 701.339 265.74 701.829 266.41C702.319 267.08 702.689 267.57 702.929 267.88C703.169 268.19 703.539 268.74 704.029 269.53C704.519 270.33 704.819 270.84 704.949 271.09C705.069 271.33 705.379 271.86 705.869 272.65C706.359 273.45 706.599 273.91 706.599 274.03C707.449 275.5 708.429 277.27 709.539 279.35C710.639 281.43 711.309 282.81 711.559 283.48C711.799 284.16 712.389 284.83 713.299 285.5C714.219 286.18 714.769 286.48 714.949 286.42C715.129 286.36 715.809 285.93 716.969 285.13C718.129 284.34 719.109 283.48 719.909 282.56C720.709 281.64 722.079 280.14 724.039 278.06C726.729 275 729.089 272.86 731.109 271.64C733.129 270.42 735.299 270.08 737.629 270.63C739.949 271.18 742.519 272.8 745.339 275.49C746.199 276.35 747.759 278.24 750.019 281.18C752.279 284.12 754.149 286.14 755.619 287.24C758.309 289.08 761.279 290.12 764.519 290.36C767.759 290.61 770.609 290.36 773.059 289.63C775.509 288.9 778.439 287.8 781.869 286.33C794.249 281.06 806.179 272.13 817.679 259.52Z" fill="#525252"/>
<path d="M818.229 253.46C818.839 252.12 819.819 251.38 821.169 251.26C822.509 251.14 823.649 251.57 824.569 252.54C825.489 253.52 825.699 254.74 825.209 256.21C818.969 271.88 815.969 287.79 816.209 303.94C816.209 306.02 815.169 307.06 813.089 307.06C810.889 307.06 809.539 306.08 809.049 304.12C808.929 303.75 808.869 303.39 808.869 303.02C808.629 286.51 811.749 269.99 818.229 253.46ZM830.529 232.35C831.389 234.43 830.769 236.08 828.689 237.31L815.659 245.02C814.799 245.51 813.879 245.54 812.909 245.11C811.929 244.68 811.259 244.04 810.889 243.18C810.039 241.22 810.649 239.57 812.729 238.23L825.759 230.52C826.619 230.03 827.529 230 828.509 230.43C829.489 230.86 830.159 231.5 830.529 232.35Z" fill="#525252"/>
<path d="M930.019 254.2C931.239 253.35 932.529 253.22 933.869 253.83C935.209 254.45 935.979 255.36 936.169 256.58C936.349 257.8 935.889 258.91 934.789 259.89C916.549 272.74 902.539 282.96 892.749 290.54C892.989 291.27 893.359 292.32 893.849 293.66C900.459 313.97 901.369 331.66 896.599 346.71C894.029 354.66 889.929 362.83 884.299 371.21C878.669 379.59 871.849 387.18 863.829 393.97C855.809 400.76 847.889 405.14 840.059 407.1C833.699 408.69 828.439 408.6 824.269 406.82C820.109 405.05 817.269 402.14 815.729 398.1C814.199 394.06 813.439 389.5 813.439 384.42C813.439 379.34 814.149 374.26 815.549 369.18C816.959 364.1 818.759 359.6 820.959 355.69C827.929 343.08 836.679 331.28 847.209 320.26C857.729 309.25 869.909 298.36 883.739 287.59C878.349 273.76 874.129 266.66 871.069 266.29C869.359 266.17 867.579 266.87 865.749 268.4C863.919 269.93 861.829 272.13 859.509 275.01C857.179 277.89 855.899 279.51 855.659 279.87C855.409 280 854.769 280.6 853.729 281.71C852.689 282.81 851.959 283.61 851.529 284.1C851.099 284.59 850.339 285.36 849.229 286.39C848.129 287.43 847.209 288.2 846.479 288.69C845.749 289.18 844.829 289.82 843.729 290.62C842.629 291.42 841.649 291.94 840.789 292.18C839.929 292.43 838.979 292.64 837.949 292.82C836.909 293 835.899 292.97 834.919 292.73C833.939 292.49 832.959 292.12 831.979 291.63C824.999 287.1 825.189 280.07 832.529 270.52C838.159 263.06 845.379 257 854.189 252.35C859.079 249.9 862.939 248.8 865.749 249.04C867.219 249.28 868.199 250.05 868.689 251.33C869.179 252.62 869.059 253.84 868.319 255C867.579 256.16 866.419 256.62 864.829 256.38C860.549 256.01 855.249 258.4 848.949 263.54C842.649 268.68 838.819 273.45 837.479 277.86C835.759 283.86 837.109 285.39 841.519 282.45C844.459 280.37 848.919 276.15 854.919 269.78C855.409 269.17 856.109 268.34 857.029 267.3C857.949 266.26 858.709 265.4 859.319 264.73C859.929 264.06 860.729 263.23 861.709 262.25C862.689 261.27 863.549 260.57 864.279 260.14C865.009 259.72 865.929 259.22 867.029 258.67C868.129 258.12 869.109 257.94 869.969 258.12C870.819 258.3 871.929 258.46 873.269 258.58C879.019 260.78 884.589 268.86 889.969 282.81C896.249 278.19 909.579 268.64 930.019 254.2ZM879.909 362.32C892.759 342.86 895.019 320.58 886.699 295.5C879.359 301.25 872.809 306.76 867.059 312.02C851.879 325.85 840.809 337.96 833.839 348.37C831.759 351.55 830.109 354.15 828.879 356.17C827.659 358.19 826.039 361.22 824.019 365.25C821.999 369.29 820.599 372.81 819.799 375.81C818.999 378.81 818.699 382.08 818.879 385.63C819.059 389.18 820.069 392.3 821.909 394.99C825.089 399.27 829.009 401.41 833.659 401.41C838.309 401.41 842.869 399.91 847.329 396.91C851.799 393.91 856.379 390.03 861.099 385.26C865.809 380.49 869.639 376.23 872.569 372.5C875.499 368.77 877.949 365.38 879.909 362.32Z" fill="#525252"/>
<path d="M1000.51 258.42C1001.24 257.81 1002.01 257.5 1002.8 257.5C1003.6 257.5 1004.3 257.75 1004.91 258.23C1005.52 258.72 1005.98 259.3 1006.29 259.97C1006.59 260.65 1006.69 261.35 1006.57 262.08C1006.45 262.81 1006.02 263.49 1005.28 264.1C996.47 271.07 986.58 274.38 975.63 274.01C964.68 273.64 955.1 269.73 946.9 262.26C942.49 267.52 938.79 273.82 935.79 281.17C932.79 288.51 930.5 296.1 928.91 303.93C928.66 305.4 927.93 306.38 926.71 306.87C925.49 307.36 924.32 307.24 923.22 306.5C922.12 305.77 921.57 304.6 921.57 303.01C922.06 286.37 925.3 267.21 931.3 245.55C931.67 244.08 932.52 243.29 933.87 243.16C935.21 243.04 936.38 243.5 937.36 244.54C938.34 245.58 938.65 246.77 938.28 248.12C936.2 255.59 934.43 262.87 932.96 269.96C936.38 263.72 940.18 258.46 944.34 254.17C945.07 253.44 945.96 253.13 947 253.25C948.04 253.38 948.86 253.8 949.48 254.54C956.21 261.88 964.47 265.92 974.26 266.66C984.05 267.42 992.8 264.66 1000.51 258.42Z" fill="#525252"/>
<path d="M1087.34 257.69C1088.32 256.59 1089.45 256.31 1090.74 256.87C1092.03 257.42 1092.79 258.34 1093.04 259.62C1093.28 260.91 1092.92 262.16 1091.94 263.39C1089.61 265.72 1086.65 268.32 1083.04 271.19C1079.43 274.07 1075.27 277.1 1070.56 280.28C1065.85 283.46 1061.14 286.06 1056.43 288.08C1051.72 290.1 1047.25 291.48 1043.03 292.21C1038.81 292.94 1035.14 292.3 1032.02 290.28C1028.9 288.26 1026.85 284.74 1025.87 279.72C1024.89 280.45 1023.7 281.4 1022.29 282.57C1020.88 283.73 1019.63 284.77 1018.53 285.69C1017.43 286.61 1016.14 287.59 1014.67 288.63C1013.2 289.67 1011.85 290.59 1010.63 291.38C1009.41 292.18 1008.06 292.91 1006.59 293.58C1005.12 294.25 1003.68 294.74 1002.27 295.05C1000.86 295.36 999.389 295.54 997.859 295.6C996.329 295.66 994.829 295.45 993.359 294.96C990.539 294.23 988.369 292.76 986.839 290.55C985.309 288.35 984.539 285.96 984.539 283.39C984.539 280.82 984.909 278.13 985.639 275.31C987.109 270.05 989.799 265.52 993.719 261.73C997.639 257.94 1002.04 255.25 1006.94 253.65C1011.83 252.06 1017 251.48 1022.45 251.91C1027.89 252.34 1032.88 253.9 1037.41 256.59C1039.61 257.81 1039.92 259.41 1038.33 261.36C1036.86 263.32 1035.15 263.69 1033.19 262.46C1023.89 257.07 1014.4 257.26 1004.74 263.01C1002.78 264.23 1000.98 265.58 999.329 267.05C997.679 268.52 996.119 270.27 994.649 272.28C993.179 274.3 992.479 276.26 992.539 278.16C992.599 280.06 993.429 282.04 995.019 284.13C996.729 285.97 998.689 286.88 1000.89 286.88C1003.09 286.88 1005.35 286.18 1007.68 284.77C1010 283.37 1012.24 281.81 1014.38 280.09C1016.52 278.38 1018.85 276.48 1021.36 274.4C1023.87 272.32 1025.86 270.79 1027.33 269.81C1028.55 269.08 1029.72 269.2 1030.82 270.18C1031.92 271.16 1032.47 272.32 1032.47 273.67C1032.71 287.38 1041.95 288.85 1060.19 278.07C1069.98 272.32 1078.79 265.77 1086.62 258.43C1086.85 258.05 1087.09 257.81 1087.34 257.69Z" fill="#525252"/>
<path d="M1203.35 204.27C1204.82 204.15 1205.95 204.64 1206.75 205.74C1207.54 206.84 1207.73 208.04 1207.3 209.32C1206.87 210.6 1205.92 211.37 1204.45 211.61C1170.43 215.77 1135.18 220.91 1098.72 227.03C1086.85 277.08 1079.57 327.74 1076.88 379.02C1076.76 380.49 1076.05 381.47 1074.77 381.96C1073.48 382.45 1072.26 382.33 1071.1 381.59C1069.94 380.86 1069.36 379.75 1069.36 378.28C1072.17 327.74 1079.33 277.75 1090.84 228.31C1072.36 231.5 1055.84 234.43 1041.28 237.12C1040.42 237.24 1039.66 237.12 1038.98 236.75C1038.31 236.38 1037.85 235.86 1037.6 235.19C1037.36 234.52 1037.23 233.81 1037.23 233.08C1037.23 232.35 1037.51 231.68 1038.06 231.06C1038.61 230.45 1039.32 230.02 1040.17 229.77C1055.35 226.96 1072.9 223.84 1092.85 220.41C1096.28 206.09 1099.76 192.94 1103.31 180.94C1103.8 179.47 1104.69 178.68 1105.97 178.56C1107.26 178.44 1108.39 178.9 1109.37 179.94C1110.35 180.98 1110.65 182.23 1110.29 183.7C1107.23 193.98 1104.05 205.79 1100.75 219.13C1136.1 213.27 1170.31 208.31 1203.35 204.27Z" fill="#525252"/>
<path d="M1107.71 253.46C1108.32 252.12 1109.3 251.38 1110.65 251.26C1111.99 251.14 1113.13 251.57 1114.05 252.54C1114.97 253.52 1115.18 254.74 1114.69 256.21C1108.45 271.88 1105.45 287.79 1105.69 303.94C1105.69 306.02 1104.65 307.06 1102.57 307.06C1100.37 307.06 1099.02 306.08 1098.53 304.12C1098.41 303.75 1098.35 303.39 1098.35 303.02C1098.1 286.51 1101.23 269.99 1107.71 253.46ZM1120.01 232.35C1120.87 234.43 1120.25 236.08 1118.17 237.31L1105.14 245.02C1104.28 245.51 1103.36 245.54 1102.39 245.11C1101.41 244.68 1100.74 244.04 1100.37 243.18C1099.52 241.22 1100.13 239.57 1102.21 238.23L1115.24 230.52C1116.1 230.03 1117.01 230 1117.99 230.43C1118.97 230.86 1119.64 231.5 1120.01 232.35Z" fill="#525252"/>
<path d="M1142.03 256.03C1147.78 257.5 1151.82 261.02 1154.15 266.59C1156.47 272.16 1156.6 277.76 1154.52 283.39C1152.69 288.78 1149.93 293.73 1146.26 298.26C1142.59 302.79 1138.43 305.17 1133.78 305.42C1129.01 305.67 1125.55 304.02 1123.41 300.47C1121.27 296.92 1120.62 292.82 1121.48 288.17C1123.19 278.62 1128.15 269.08 1136.35 259.53C1136.59 259.29 1136.9 259.04 1137.27 258.8C1138.12 256.47 1139.71 255.55 1142.03 256.03ZM1129.92 296.97C1132.24 299.05 1135.73 297.64 1140.38 292.75C1145.76 287.12 1148.64 281.25 1149.01 275.13C1149.38 269.87 1147.11 266.13 1142.22 263.93C1141.24 265.03 1140.2 266.35 1139.1 267.88C1138 269.41 1136.71 271.28 1135.25 273.48C1133.78 275.68 1132.5 277.88 1131.39 280.09C1130.29 282.29 1129.37 284.47 1128.64 286.61C1127.91 288.75 1127.63 290.74 1127.81 292.58C1127.99 294.4 1128.7 295.87 1129.92 296.97Z" fill="#525252"/>
<path d="M1285.95 257.69C1286.93 256.59 1288.12 256.16 1289.53 256.4C1290.94 256.65 1291.92 257.35 1292.47 258.51C1293.02 259.67 1292.87 260.86 1292.01 262.09C1288.95 265.88 1285.34 269.8 1281.18 273.84C1277.02 277.88 1272.12 281.89 1266.49 285.86C1260.86 289.84 1255.35 292.96 1249.97 295.22C1244.58 297.49 1239.08 298.34 1233.45 297.79C1227.82 297.24 1222.99 294.83 1218.95 290.54C1216.75 288.1 1213.78 284.48 1210.05 279.71C1206.32 274.94 1203.59 271.57 1201.88 269.61C1200.78 268.51 1199.74 267.62 1198.76 266.95C1197.78 266.28 1196.92 265.82 1196.19 265.57C1195.46 265.33 1194.66 265.39 1193.8 265.75C1192.94 266.12 1192.24 266.46 1191.69 266.76C1191.14 267.07 1190.43 267.71 1189.58 268.69C1188.72 269.67 1188.11 270.46 1187.74 271.08C1187.37 271.69 1186.7 272.7 1185.72 274.11C1184.74 275.52 1184.07 276.47 1183.7 276.95C1183.09 277.93 1181.46 281.02 1178.83 286.22C1176.2 291.42 1173.51 295.83 1170.75 299.44C1168 303.05 1165.39 305.04 1162.95 305.41C1161.48 305.66 1160.32 305.23 1159.46 304.12C1158.6 302.9 1157.96 301.58 1157.53 300.17C1157.1 298.77 1156.95 297.05 1157.07 295.03C1157.19 293.01 1157.32 291.45 1157.44 290.35C1157.56 289.25 1157.87 287.48 1158.36 285.03C1158.85 282.58 1159.16 281.17 1159.28 280.81C1160.01 276.16 1161.42 269.52 1163.5 260.89C1165.58 252.26 1166.8 247.09 1167.17 245.38C1167.54 244.03 1168.39 243.12 1169.74 242.63C1171.08 242.14 1172.31 242.26 1173.41 243C1174.51 243.74 1174.88 244.84 1174.51 246.31C1173.9 249 1172.86 253.44 1171.39 259.62C1169.92 265.8 1168.82 270.54 1168.08 273.85C1166.61 281.07 1165.69 286.09 1165.33 288.9C1165.33 289.26 1165.33 289.81 1165.33 290.55C1166.31 288.72 1167.56 286.76 1169.09 284.68C1170.62 282.6 1172.24 280.4 1173.95 278.07C1175.66 275.75 1176.89 273.97 1177.62 272.75C1177.99 272.26 1178.51 271.53 1179.18 270.55C1179.85 269.57 1180.43 268.71 1180.92 267.98C1181.41 267.25 1181.99 266.42 1182.66 265.5C1183.33 264.58 1183.97 263.76 1184.59 263.02C1185.2 262.29 1185.88 261.55 1186.61 260.82C1187.34 260.09 1188.11 259.41 1188.91 258.8C1189.7 258.19 1190.47 257.7 1191.2 257.33C1193.16 256.84 1194.87 256.6 1196.34 256.6C1197.81 256.6 1199.4 257.15 1201.11 258.25C1202.82 259.35 1204.32 260.51 1205.61 261.74C1206.9 262.96 1208.3 264.49 1209.83 266.33C1211.36 268.17 1212.64 269.85 1213.69 271.38C1214.73 272.91 1215.83 274.53 1216.99 276.25C1218.15 277.96 1219.16 279.31 1220.02 280.29C1224.3 285.55 1228.16 288.64 1231.58 289.56C1235 290.48 1239.9 289.78 1246.26 287.45C1261.23 281.92 1274.45 272.01 1285.95 257.69Z" fill="#525252"/>
<path d="M259.02 286.83C268.93 297.55 278.93 302.81 289.68 302.92C295.5 303 302.34 300.68 309.56 296.91C339.47 281.26 357.53 249.55 357.53 215.79V45.7C357.53 20.47 337.06 0 311.81 0H45.7C20.47 0 0 20.47 0 45.7V259.8C11.44 251.66 23.9 246.89 35.78 242.77C66.27 232.19 99.75 223.11 137.83 214.91L138.63 212.78C147.74 188.58 158.13 161.02 165.96 133.99C168.87 123.99 178.45 117.82 188.7 119.23C198.97 120.67 206.51 129.23 206.53 139.64C206.61 160.24 209.35 180.63 214.7 200.46C229.49 197.97 244.39 195.56 259.48 193.12C269.15 191.6 279.89 197.83 282.38 207.3C285.34 218.6 277.84 229.76 266.57 231.53C266.29 231.59 266.07 231.64 265.79 231.67C253.05 233.75 240.42 235.74 227.96 237.85C225.47 238.24 222.95 238.68 220.54 239.07C220.54 239.1 220.54 239.1 220.54 239.1C205.83 241.51 192.21 243.95 180.05 246.3C177.25 246.83 174.54 247.35 171.91 247.88C170.11 248.21 168.34 248.57 166.62 248.93C137.57 254.72 119.65 259.15 119.65 259.15C93.81 265.35 70.35 272.17 48.59 279.7C41.28 282.22 33.77 284.99 27.35 288.62C25.16 289.87 23.09 291.2 21.17 292.66C15.05 297.4 11.06 303.68 10.78 309C10.42 315.81 16.32 323.71 24.18 327.03C36.09 332.01 49.58 328.47 56.55 325.89C80.31 317.19 97.07 297.28 106.9 282.11C108.2 280.09 109.45 278.07 110.64 276.02C125.01 272.39 140.13 268.99 156.09 265.72C156.12 265.72 156.17 265.69 156.2 265.69C157.45 265.47 158.66 265.19 159.94 264.91C153.93 278.67 147.56 291.25 139.7 303.35C123.69 328.03 103.84 346.52 81.68 357.52H311.79C337.05 357.52 357.51 337.05 357.51 311.82V311.43C336.99 327.3 312.12 342.03 290.1 342.03C289.77 342.03 289.44 342 289.13 342C267.45 341.72 247.67 332.11 230.31 313.42C216.3 298.24 204.39 280.1 194.34 258.42C209.24 255.65 225.11 252.74 234.27 251.08C241.55 264.98 249.72 276.83 259.02 286.83ZM196.66 98.26C177.3 98.26 161.6 82.56 161.6 63.2C161.6 43.81 177.3 28.11 196.66 28.11C216.02 28.11 231.72 43.81 231.72 63.2C231.72 82.56 216.01 98.26 196.66 98.26Z" fill="#00A292"/>
</g>
<defs>
<clipPath id="clip0_1029_1453">
<rect width="1367.52" height="408.24" fill="white"/>
</clipPath>
</defs>
</svg>
