<?xml version="1.0" encoding="utf-8"?>
<!-- Generator: Adobe Illustrator 25.0.1, SVG Export Plug-In . SVG Version: 6.00 Build 0)  -->
<svg version="1.1" id="Layer_1" xmlns="http://www.w3.org/2000/svg" xmlns:xlink="http://www.w3.org/1999/xlink" x="0px" y="0px"
	 viewBox="0 0 1367.52 408.24" style="enable-background:new 0 0 1367.52 408.24;" xml:space="preserve">
<style type="text/css">
	.st0{fill:#00F9E1;}
	.st1{fill:#FFFFFF;}
</style>
<g>
	<g>
		<g>
			<path class="st1" d="M509.04,164.3h-55.29l-10.52,29.07h-17.48l46.55-123.43h18.37l46.38,123.43h-17.48L509.04,164.3z
				 M504.4,151.63l-23.01-63.5l-23.01,63.5H504.4z"/>
			<path class="st1" d="M665.29,217.81l-25.33-25.51c-5.95,1.66-12.01,2.5-18.19,2.5c-11.65,0-22.21-2.73-31.66-8.21
				c-9.45-5.47-16.86-13.11-22.21-22.92c-5.35-9.81-8.03-20.9-8.03-33.26c0-12.37,2.68-23.46,8.03-33.27
				c5.35-9.81,12.75-17.45,22.21-22.92c9.45-5.47,20.01-8.21,31.66-8.21c11.65,0,22.15,2.74,31.48,8.21
				c9.33,5.47,16.68,13.11,22.03,22.92c5.35,9.81,8.03,20.9,8.03,33.27c0,12.49-2.68,23.63-8.03,33.44
				c-5.35,9.81-12.73,17.39-22.12,22.74l32.64,31.22H665.29z M582.44,156.45c3.86,7.49,9.21,13.23,16.05,17.21
				c6.84,3.99,14.6,5.97,23.28,5.97c8.56,0,16.26-2.02,23.1-6.06c6.84-4.04,12.19-9.78,16.05-17.21c3.86-7.43,5.8-16.08,5.8-25.95
				c0-9.99-1.93-18.7-5.8-26.13c-3.87-7.43-9.22-13.14-16.05-17.12c-6.84-3.98-14.54-5.98-23.1-5.98c-8.68,0-16.44,1.99-23.28,5.98
				c-6.84,3.99-12.19,9.69-16.05,17.12c-3.86,7.43-5.8,16.14-5.8,26.13C576.64,140.28,578.57,148.96,582.44,156.45z"/>
			<path class="st1" d="M731.28,67.62v75.45c0,12.37,2.73,21.49,8.21,27.38c5.47,5.89,13.02,8.83,22.65,8.83
				c9.51,0,16.95-2.97,22.3-8.92c5.35-5.94,8.03-15.04,8.03-27.29V67.62h16.23v75.45c0,17.12-4.25,30-12.75,38.62
				c-8.5,8.62-19.89,12.93-34.16,12.93c-14.15,0-25.48-4.31-33.98-12.93c-8.5-8.62-12.75-21.49-12.75-38.62V67.62H731.28z"/>
			<path class="st1" d="M918.21,164.3h-55.29l-10.52,29.07h-17.48l46.56-123.43h18.37l46.37,123.43h-17.48L918.21,164.3z
				 M913.58,151.63l-23.01-63.5l-23.01,63.5H913.58z"/>
			<path class="st1" d="M1040.04,193.37L1007.22,142h-17.66v51.37h-16.23V67.62h41.38c14.27,0,24.97,3.42,32.11,10.26
				c7.13,6.84,10.7,15.9,10.7,27.2c0,10.23-2.85,18.46-8.56,24.7c-5.71,6.24-13.97,10.14-24.79,11.68l34.25,51.91H1040.04z
				 M989.56,130.23h23.72c18.43,0,27.65-8.08,27.65-24.26c0-16.17-9.22-24.26-27.65-24.26h-23.72V130.23z"/>
			<path class="st1" d="M1104.25,67.62v125.75h-16.23V67.62H1104.25z"/>
			<path class="st1" d="M1214.66,164.3h-55.29l-10.52,29.07h-17.48l46.56-123.43h18.37l46.37,123.43h-17.48L1214.66,164.3z
				 M1210.02,151.63l-23.01-63.5l-23.01,63.5H1210.02z"/>
			<path class="st1" d="M1367.52,193.37h-16.23l-65.28-99.35v99.35h-16.23V67.62h16.23l65.28,99.53V67.62h16.23V193.37z"/>
		</g>
		<g>
			<path class="st0" d="M509.84,253.46c0.61-1.34,1.59-2.08,2.94-2.2c1.34-0.12,2.48,0.31,3.4,1.28c0.92,0.98,1.13,2.2,0.64,3.67
				c-6.24,15.67-9.24,31.58-9,47.73c0,2.08-1.04,3.12-3.12,3.12c-2.2,0-3.55-0.98-4.04-2.94c-0.12-0.37-0.18-0.73-0.18-1.1
				C500.24,286.51,503.36,269.99,509.84,253.46z M522.14,232.35c0.86,2.08,0.24,3.73-1.84,4.96l-13.03,7.71
				c-0.86,0.49-1.78,0.52-2.75,0.09s-1.65-1.07-2.02-1.93c-0.85-1.96-0.24-3.61,1.84-4.95l13.03-7.71c0.86-0.49,1.77-0.52,2.75-0.09
				C521.1,230.86,521.78,231.5,522.14,232.35z"/>
			<path class="st0" d="M672.48,259.52c0.98-1.1,2.2-1.5,3.67-1.19c1.47,0.31,2.45,1.01,2.94,2.11c0.49,1.1,0.3,2.2-0.55,3.31
				c-18.6,20.19-36.28,31.45-53.05,33.78c-7.34,0.98-13.34,0-17.99-2.94c-1.1-0.73-2.27-1.77-3.49-3.12
				c-1.23-1.34-2.27-2.6-3.12-3.76c-0.86-1.16-1.84-2.42-2.94-3.76c-1.1-1.35-2.14-2.35-3.12-3.03c-0.98-0.67-2.17-1.16-3.58-1.47
				c-1.41-0.31-2.85-0.03-4.32,0.82c-1.59,0.73-3.21,2.05-4.86,3.95c-1.65,1.9-3.12,3.74-4.41,5.51c-1.29,1.77-2.63,3.37-4.04,4.77
				c-1.41,1.41-3.03,1.96-4.87,1.65c-1.83-0.3-3.79-1.62-5.87-3.95c-0.86-0.85-1.74-2.2-2.66-4.04c-0.92-1.84-1.72-3.64-2.39-5.41
				c-0.67-1.77-1.53-3.61-2.57-5.51c-1.04-1.9-2.05-3.33-3.03-4.31c-0.98-0.98-2.27-1.62-3.85-1.93c-1.59-0.3-3.37,0.28-5.32,1.75
				c-2.69,1.71-6.03,5.84-10.01,12.39c-3.98,6.55-6.82,10.68-8.53,12.39c-1.23,1.22-2.57,1.38-4.04,0.46
				c-1.47-0.92-2.14-2.17-2.02-3.76c1.47-15.42,4.71-30.65,9.73-45.71c0.49-1.35,1.41-2.11,2.75-2.29c1.34-0.18,2.48,0.24,3.4,1.28
				c0.92,1.04,1.13,2.3,0.64,3.77c-2.94,9.05-5.26,18.6-6.98,28.63c1.84-3.06,3.42-5.53,4.77-7.43c1.35-1.89,2.97-3.91,4.87-6.06
				c1.9-2.14,3.85-3.64,5.87-4.5c2.02-0.86,4.07-1.04,6.15-0.55c0.49,0.12,1.01,0.31,1.56,0.55c0.55,0.24,1.07,0.49,1.56,0.73
				c0.49,0.24,0.98,0.61,1.47,1.1c0.49,0.49,0.89,0.89,1.19,1.19c0.3,0.31,0.7,0.8,1.19,1.47c0.49,0.67,0.86,1.16,1.1,1.47
				c0.24,0.31,0.61,0.86,1.1,1.65c0.49,0.8,0.79,1.31,0.92,1.56c0.12,0.24,0.43,0.77,0.92,1.56c0.49,0.8,0.73,1.26,0.73,1.38
				c0.85,1.47,1.83,3.24,2.94,5.32c1.1,2.08,1.77,3.46,2.02,4.13c0.24,0.68,0.83,1.35,1.74,2.02c0.92,0.68,1.47,0.98,1.65,0.92
				c0.18-0.06,0.86-0.49,2.02-1.29c1.16-0.79,2.14-1.65,2.94-2.57c0.8-0.92,2.17-2.42,4.13-4.5c2.69-3.06,5.05-5.2,7.07-6.42
				c2.02-1.22,4.19-1.56,6.52-1.01c2.32,0.55,4.89,2.17,7.71,4.86c0.86,0.86,2.42,2.75,4.68,5.69c2.26,2.94,4.13,4.96,5.6,6.06
				c2.69,1.84,5.66,2.88,8.9,3.12c3.24,0.25,6.09,0,8.54-0.73c2.45-0.73,5.38-1.83,8.81-3.3
				C649.05,281.06,660.98,272.13,672.48,259.52z"/>
			<path class="st0" d="M817.68,259.52c0.98-1.1,2.2-1.5,3.67-1.19c1.47,0.31,2.45,1.01,2.94,2.11c0.49,1.1,0.3,2.2-0.55,3.31
				c-18.6,20.19-36.28,31.45-53.05,33.78c-7.34,0.98-13.34,0-17.99-2.94c-1.1-0.73-2.27-1.77-3.49-3.12
				c-1.23-1.34-2.27-2.6-3.12-3.76c-0.86-1.16-1.84-2.42-2.94-3.76c-1.1-1.35-2.14-2.35-3.12-3.03c-0.98-0.67-2.17-1.16-3.58-1.47
				c-1.41-0.31-2.85-0.03-4.32,0.82c-1.59,0.73-3.21,2.05-4.86,3.95c-1.65,1.9-3.12,3.74-4.41,5.51c-1.29,1.77-2.63,3.37-4.04,4.77
				c-1.41,1.41-3.03,1.96-4.87,1.65c-1.83-0.3-3.79-1.62-5.87-3.95c-0.86-0.85-1.74-2.2-2.66-4.04c-0.92-1.84-1.72-3.64-2.39-5.41
				c-0.67-1.77-1.53-3.61-2.57-5.51c-1.04-1.9-2.05-3.33-3.03-4.31c-0.98-0.98-2.27-1.62-3.85-1.93c-1.59-0.3-3.37,0.28-5.32,1.75
				c-2.69,1.71-6.03,5.84-10.01,12.39c-3.98,6.55-6.82,10.68-8.53,12.39c-1.23,1.22-2.57,1.38-4.04,0.46
				c-1.47-0.92-2.14-2.17-2.02-3.76c1.47-15.42,4.71-30.65,9.73-45.71c0.49-1.35,1.41-2.11,2.75-2.29c1.34-0.18,2.48,0.24,3.4,1.28
				c0.92,1.04,1.13,2.3,0.64,3.77c-2.94,9.05-5.26,18.6-6.98,28.63c1.84-3.06,3.42-5.53,4.77-7.43c1.35-1.89,2.97-3.91,4.87-6.06
				c1.9-2.14,3.85-3.64,5.87-4.5c2.02-0.86,4.07-1.04,6.15-0.55c0.49,0.12,1.01,0.31,1.56,0.55c0.55,0.24,1.07,0.49,1.56,0.73
				c0.49,0.24,0.98,0.61,1.47,1.1c0.49,0.49,0.89,0.89,1.19,1.19c0.3,0.31,0.7,0.8,1.19,1.47c0.49,0.67,0.86,1.16,1.1,1.47
				c0.24,0.31,0.61,0.86,1.1,1.65c0.49,0.8,0.79,1.31,0.92,1.56c0.12,0.24,0.43,0.77,0.92,1.56c0.49,0.8,0.73,1.26,0.73,1.38
				c0.85,1.47,1.83,3.24,2.94,5.32c1.1,2.08,1.77,3.46,2.02,4.13c0.24,0.68,0.83,1.35,1.74,2.02c0.92,0.68,1.47,0.98,1.65,0.92
				c0.18-0.06,0.86-0.49,2.02-1.29c1.16-0.79,2.14-1.65,2.94-2.57c0.8-0.92,2.17-2.42,4.13-4.5c2.69-3.06,5.05-5.2,7.07-6.42
				c2.02-1.22,4.19-1.56,6.52-1.01c2.32,0.55,4.89,2.17,7.71,4.86c0.86,0.86,2.42,2.75,4.68,5.69c2.26,2.94,4.13,4.96,5.6,6.06
				c2.69,1.84,5.66,2.88,8.9,3.12c3.24,0.25,6.09,0,8.54-0.73c2.45-0.73,5.38-1.83,8.81-3.3
				C794.25,281.06,806.18,272.13,817.68,259.52z"/>
			<path class="st0" d="M818.23,253.46c0.61-1.34,1.59-2.08,2.94-2.2c1.34-0.12,2.48,0.31,3.4,1.28c0.92,0.98,1.13,2.2,0.64,3.67
				c-6.24,15.67-9.24,31.58-9,47.73c0,2.08-1.04,3.12-3.12,3.12c-2.2,0-3.55-0.98-4.04-2.94c-0.12-0.37-0.18-0.73-0.18-1.1
				C808.63,286.51,811.75,269.99,818.23,253.46z M830.53,232.35c0.86,2.08,0.24,3.73-1.84,4.96l-13.03,7.71
				c-0.86,0.49-1.78,0.52-2.75,0.09c-0.98-0.43-1.65-1.07-2.02-1.93c-0.85-1.96-0.24-3.61,1.84-4.95l13.03-7.71
				c0.86-0.49,1.77-0.52,2.75-0.09C829.49,230.86,830.16,231.5,830.53,232.35z"/>
			<path class="st0" d="M930.02,254.2c1.22-0.85,2.51-0.98,3.85-0.37c1.34,0.62,2.11,1.53,2.3,2.75c0.18,1.22-0.28,2.33-1.38,3.31
				c-18.24,12.85-32.25,23.07-42.04,30.65c0.24,0.73,0.61,1.78,1.1,3.12c6.61,20.31,7.52,38,2.75,53.05
				c-2.57,7.95-6.67,16.12-12.3,24.5c-5.63,8.38-12.45,15.97-20.47,22.76c-8.02,6.79-15.94,11.17-23.77,13.13
				c-6.36,1.59-11.62,1.5-15.79-0.28c-4.16-1.77-7-4.68-8.54-8.72c-1.53-4.04-2.29-8.6-2.29-13.68c0-5.08,0.71-10.16,2.11-15.24
				c1.41-5.08,3.21-9.58,5.41-13.49c6.97-12.61,15.72-24.41,26.25-35.43c10.52-11.01,22.7-21.9,36.53-32.67
				c-5.39-13.83-9.61-20.93-12.67-21.3c-1.71-0.12-3.49,0.58-5.32,2.11c-1.83,1.53-3.92,3.73-6.24,6.61
				c-2.33,2.88-3.61,4.5-3.85,4.86c-0.25,0.13-0.89,0.73-1.93,1.84c-1.04,1.1-1.77,1.9-2.2,2.39c-0.43,0.49-1.19,1.26-2.3,2.29
				c-1.1,1.04-2.02,1.81-2.75,2.3c-0.73,0.49-1.65,1.13-2.75,1.93c-1.1,0.8-2.08,1.32-2.94,1.56c-0.86,0.25-1.81,0.46-2.84,0.64
				c-1.04,0.18-2.05,0.15-3.03-0.09c-0.98-0.24-1.96-0.61-2.94-1.1c-6.98-4.53-6.79-11.56,0.55-21.11
				c5.63-7.46,12.85-13.52,21.66-18.17c4.89-2.45,8.75-3.55,11.56-3.31c1.47,0.24,2.45,1.01,2.94,2.29
				c0.49,1.29,0.37,2.51-0.37,3.67s-1.9,1.62-3.49,1.38c-4.28-0.37-9.58,2.02-15.88,7.16c-6.3,5.14-10.13,9.91-11.47,14.32
				c-1.72,6-0.37,7.53,4.04,4.59c2.94-2.08,7.4-6.3,13.4-12.67c0.49-0.61,1.19-1.44,2.11-2.48s1.68-1.9,2.29-2.57
				c0.61-0.67,1.41-1.5,2.39-2.48c0.98-0.98,1.84-1.68,2.57-2.11c0.73-0.42,1.65-0.92,2.75-1.47c1.1-0.55,2.08-0.73,2.94-0.55
				c0.85,0.18,1.96,0.34,3.3,0.46c5.75,2.2,11.32,10.28,16.7,24.23C896.25,278.19,909.58,268.64,930.02,254.2z M879.91,362.32
				c12.85-19.46,15.11-41.74,6.79-66.82c-7.34,5.75-13.89,11.26-19.64,16.52c-15.18,13.83-26.25,25.94-33.22,36.35
				c-2.08,3.18-3.73,5.78-4.96,7.8c-1.22,2.02-2.84,5.05-4.86,9.08c-2.02,4.04-3.42,7.56-4.22,10.56c-0.8,3-1.1,6.27-0.92,9.82
				c0.18,3.55,1.19,6.67,3.03,9.36c3.18,4.28,7.1,6.42,11.75,6.42c4.65,0,9.21-1.5,13.67-4.5c4.47-3,9.05-6.88,13.77-11.65
				c4.71-4.77,8.54-9.03,11.47-12.76C875.5,368.77,877.95,365.38,879.91,362.32z"/>
			<path class="st0" d="M1000.51,258.42c0.73-0.61,1.5-0.92,2.29-0.92c0.8,0,1.5,0.25,2.11,0.73c0.61,0.49,1.07,1.07,1.38,1.74
				c0.3,0.68,0.4,1.38,0.28,2.11c-0.12,0.73-0.55,1.41-1.29,2.02c-8.81,6.97-18.7,10.28-29.65,9.91
				c-10.95-0.37-20.53-4.28-28.73-11.75c-4.41,5.26-8.11,11.56-11.11,18.91c-3,7.34-5.29,14.93-6.88,22.76
				c-0.25,1.47-0.98,2.45-2.2,2.94c-1.22,0.49-2.39,0.37-3.49-0.37c-1.1-0.73-1.65-1.9-1.65-3.49c0.49-16.64,3.73-35.8,9.73-57.46
				c0.37-1.47,1.22-2.26,2.57-2.39c1.34-0.12,2.51,0.34,3.49,1.38c0.98,1.04,1.29,2.23,0.92,3.58c-2.08,7.47-3.85,14.75-5.32,21.84
				c3.42-6.24,7.22-11.5,11.38-15.79c0.73-0.73,1.62-1.04,2.66-0.92c1.04,0.13,1.86,0.55,2.48,1.29
				c6.73,7.34,14.99,11.38,24.78,12.12C984.05,267.42,992.8,264.66,1000.51,258.42z"/>
			<path class="st0" d="M1087.34,257.69c0.98-1.1,2.11-1.38,3.4-0.82c1.29,0.55,2.05,1.47,2.3,2.75c0.24,1.29-0.12,2.54-1.1,3.77
				c-2.33,2.33-5.29,4.93-8.9,7.8c-3.61,2.88-7.77,5.91-12.48,9.09c-4.71,3.18-9.42,5.78-14.13,7.8c-4.71,2.02-9.18,3.4-13.4,4.13
				c-4.22,0.73-7.89,0.09-11.01-1.93c-3.12-2.02-5.17-5.54-6.15-10.56c-0.98,0.73-2.17,1.68-3.58,2.85
				c-1.41,1.16-2.66,2.2-3.76,3.12c-1.1,0.92-2.39,1.9-3.86,2.94c-1.47,1.04-2.82,1.96-4.04,2.75c-1.22,0.8-2.57,1.53-4.04,2.2
				c-1.47,0.67-2.91,1.16-4.32,1.47c-1.41,0.31-2.88,0.49-4.41,0.55c-1.53,0.06-3.03-0.15-4.5-0.64c-2.82-0.73-4.99-2.2-6.52-4.41
				c-1.53-2.2-2.3-4.59-2.3-7.16s0.37-5.26,1.1-8.08c1.47-5.26,4.16-9.79,8.08-13.58c3.92-3.79,8.32-6.48,13.22-8.08
				c4.89-1.59,10.06-2.17,15.51-1.74c5.44,0.43,10.43,1.99,14.96,4.68c2.2,1.22,2.51,2.82,0.92,4.77c-1.47,1.96-3.18,2.33-5.14,1.1
				c-9.3-5.39-18.79-5.2-28.45,0.55c-1.96,1.22-3.76,2.57-5.41,4.04s-3.21,3.22-4.68,5.23c-1.47,2.02-2.17,3.98-2.11,5.88
				c0.06,1.9,0.89,3.88,2.48,5.97c1.71,1.84,3.67,2.75,5.87,2.75c2.2,0,4.46-0.7,6.79-2.11c2.32-1.4,4.56-2.96,6.7-4.68
				c2.14-1.71,4.47-3.61,6.98-5.69c2.51-2.08,4.5-3.61,5.97-4.59c1.22-0.73,2.39-0.61,3.49,0.37c1.1,0.98,1.65,2.14,1.65,3.49
				c0.24,13.71,9.48,15.18,27.72,4.4c9.79-5.75,18.6-12.3,26.43-19.64C1086.85,258.05,1087.09,257.81,1087.34,257.69z"/>
			<path class="st0" d="M1203.35,204.27c1.47-0.12,2.6,0.37,3.4,1.47c0.79,1.1,0.98,2.3,0.55,3.58c-0.43,1.28-1.38,2.05-2.85,2.29
				c-34.02,4.16-69.27,9.3-105.73,15.42c-11.87,50.05-19.15,100.71-21.84,151.99c-0.12,1.47-0.83,2.45-2.11,2.94
				c-1.29,0.49-2.51,0.37-3.67-0.37c-1.16-0.73-1.74-1.84-1.74-3.31c2.81-50.54,9.97-100.53,21.48-149.97
				c-18.48,3.19-35,6.12-49.56,8.81c-0.86,0.12-1.62,0-2.3-0.37c-0.67-0.37-1.13-0.89-1.38-1.56c-0.24-0.67-0.37-1.38-0.37-2.11
				c0-0.73,0.28-1.4,0.83-2.02c0.55-0.61,1.26-1.04,2.11-1.29c15.18-2.81,32.73-5.93,52.68-9.36c3.43-14.32,6.91-27.47,10.46-39.47
				c0.49-1.47,1.38-2.26,2.66-2.38c1.29-0.12,2.42,0.34,3.4,1.38c0.98,1.04,1.28,2.29,0.92,3.76c-3.06,10.28-6.24,22.09-9.54,35.43
				C1136.1,213.27,1170.31,208.31,1203.35,204.27z"/>
			<path class="st0" d="M1107.71,253.46c0.61-1.34,1.59-2.08,2.94-2.2c1.34-0.12,2.48,0.31,3.4,1.28c0.92,0.98,1.13,2.2,0.64,3.67
				c-6.24,15.67-9.24,31.58-9,47.73c0,2.08-1.04,3.12-3.12,3.12c-2.2,0-3.55-0.98-4.04-2.94c-0.12-0.37-0.18-0.73-0.18-1.1
				C1098.1,286.51,1101.23,269.99,1107.71,253.46z M1120.01,232.35c0.86,2.08,0.24,3.73-1.84,4.96l-13.03,7.71
				c-0.86,0.49-1.78,0.52-2.75,0.09c-0.98-0.43-1.65-1.07-2.02-1.93c-0.85-1.96-0.24-3.61,1.84-4.95l13.03-7.71
				c0.86-0.49,1.77-0.52,2.75-0.09C1118.97,230.86,1119.64,231.5,1120.01,232.35z"/>
			<path class="st0" d="M1142.03,256.03c5.75,1.47,9.79,4.99,12.12,10.56c2.32,5.57,2.45,11.17,0.37,16.8
				c-1.83,5.39-4.59,10.34-8.26,14.87c-3.67,4.53-7.83,6.91-12.48,7.16c-4.77,0.25-8.23-1.4-10.37-4.95
				c-2.14-3.55-2.79-7.65-1.93-12.3c1.71-9.55,6.67-19.09,14.87-28.64c0.24-0.24,0.55-0.49,0.92-0.73
				C1138.12,256.47,1139.71,255.55,1142.03,256.03z M1129.92,296.97c2.32,2.08,5.81,0.67,10.46-4.22c5.38-5.63,8.26-11.5,8.63-17.62
				c0.37-5.26-1.9-9-6.79-11.2c-0.98,1.1-2.02,2.42-3.12,3.95c-1.1,1.53-2.39,3.4-3.85,5.6c-1.47,2.2-2.75,4.4-3.86,6.61
				c-1.1,2.2-2.02,4.38-2.75,6.52c-0.73,2.14-1.01,4.13-0.83,5.97C1127.99,294.4,1128.7,295.87,1129.92,296.97z"/>
			<path class="st0" d="M1285.95,257.69c0.98-1.1,2.17-1.53,3.58-1.29c1.41,0.25,2.39,0.95,2.94,2.11c0.55,1.16,0.4,2.35-0.46,3.58
				c-3.06,3.79-6.67,7.71-10.83,11.75c-4.16,4.04-9.06,8.05-14.69,12.02c-5.63,3.98-11.14,7.1-16.52,9.36
				c-5.39,2.27-10.89,3.12-16.52,2.57c-5.63-0.55-10.46-2.96-14.5-7.25c-2.2-2.44-5.17-6.06-8.9-10.83
				c-3.73-4.77-6.46-8.14-8.17-10.1c-1.1-1.1-2.14-1.99-3.12-2.66c-0.98-0.67-1.84-1.13-2.57-1.38c-0.73-0.24-1.53-0.18-2.39,0.18
				c-0.86,0.37-1.56,0.71-2.11,1.01c-0.55,0.31-1.26,0.95-2.11,1.93c-0.86,0.98-1.47,1.77-1.84,2.39c-0.37,0.61-1.04,1.62-2.02,3.03
				c-0.98,1.41-1.65,2.36-2.02,2.84c-0.61,0.98-2.24,4.07-4.87,9.27c-2.63,5.2-5.32,9.61-8.08,13.22c-2.75,3.61-5.36,5.6-7.8,5.97
				c-1.47,0.25-2.63-0.18-3.49-1.29c-0.86-1.22-1.5-2.54-1.93-3.95c-0.43-1.4-0.58-3.12-0.46-5.14c0.12-2.02,0.25-3.58,0.37-4.68
				c0.12-1.1,0.43-2.87,0.92-5.32c0.49-2.45,0.8-3.86,0.92-4.22c0.73-4.65,2.14-11.29,4.22-19.92c2.08-8.63,3.3-13.8,3.67-15.51
				c0.37-1.35,1.22-2.26,2.57-2.75c1.34-0.49,2.57-0.37,3.67,0.37s1.47,1.84,1.1,3.31c-0.61,2.69-1.65,7.13-3.12,13.31
				c-1.47,6.18-2.57,10.92-3.31,14.23c-1.47,7.22-2.39,12.24-2.75,15.05c0,0.36,0,0.91,0,1.65c0.98-1.83,2.23-3.79,3.76-5.87
				c1.53-2.08,3.15-4.28,4.86-6.61c1.71-2.32,2.94-4.1,3.67-5.32c0.37-0.49,0.89-1.22,1.56-2.2c0.67-0.98,1.25-1.84,1.74-2.57
				c0.49-0.73,1.07-1.56,1.74-2.48c0.67-0.92,1.31-1.74,1.93-2.48c0.61-0.73,1.29-1.47,2.02-2.2c0.73-0.73,1.5-1.41,2.3-2.02
				c0.79-0.61,1.56-1.1,2.29-1.47c1.96-0.49,3.67-0.73,5.14-0.73c1.47,0,3.06,0.55,4.77,1.65c1.71,1.1,3.21,2.26,4.5,3.49
				c1.29,1.22,2.69,2.75,4.22,4.59c1.53,1.84,2.81,3.52,3.86,5.05c1.04,1.53,2.14,3.15,3.3,4.87c1.16,1.71,2.17,3.06,3.03,4.04
				c4.28,5.26,8.14,8.35,11.56,9.27c3.42,0.92,8.32,0.22,14.68-2.11C1261.23,281.92,1274.45,272.01,1285.95,257.69z"/>
		</g>
	</g>
	<g>
		<g>
			<g>
				<path class="st0" d="M259.02,286.83c9.91,10.72,19.91,15.98,30.66,16.09c5.82,0.08,12.66-2.24,19.88-6.01
					c29.91-15.65,47.97-47.36,47.97-81.12V45.7c0-25.23-20.47-45.7-45.72-45.7H45.7C20.47,0,0,20.47,0,45.7v214.1
					c11.44-8.14,23.9-12.91,35.78-17.03c30.49-10.58,63.97-19.66,102.05-27.86l0.8-2.13c9.11-24.2,19.5-51.76,27.33-78.79
					c2.91-10,12.49-16.17,22.74-14.76c10.27,1.44,17.81,10,17.83,20.41c0.08,20.6,2.82,40.99,8.17,60.82
					c14.79-2.49,29.69-4.9,44.78-7.34c9.67-1.52,20.41,4.71,22.9,14.18c2.96,11.3-4.54,22.46-15.81,24.23
					c-0.28,0.06-0.5,0.11-0.78,0.14c-12.74,2.08-25.37,4.07-37.83,6.18c-2.49,0.39-5.01,0.83-7.42,1.22c0,0.03,0,0.03,0,0.03
					c-14.71,2.41-28.33,4.85-40.49,7.2c-2.8,0.53-5.51,1.05-8.14,1.58c-1.8,0.33-3.57,0.69-5.29,1.05
					c-29.05,5.79-46.97,10.22-46.97,10.22c-25.84,6.2-49.3,13.02-71.06,20.55c-7.31,2.52-14.82,5.29-21.24,8.92
					c-2.19,1.25-4.26,2.58-6.18,4.04c-6.12,4.74-10.11,11.02-10.39,16.34c-0.36,6.81,5.54,14.71,13.4,18.03
					c11.91,4.98,25.4,1.44,32.37-1.14c23.76-8.7,40.52-28.61,50.35-43.78c1.3-2.02,2.55-4.04,3.74-6.09
					c14.37-3.63,29.49-7.03,45.45-10.3c0.03,0,0.08-0.03,0.11-0.03c1.25-0.22,2.46-0.5,3.74-0.78
					c-6.01,13.76-12.38,26.34-20.24,38.44c-16.01,24.68-35.86,43.17-58.02,54.17h230.11c25.26,0,45.72-20.47,45.72-45.7v-0.39
					c-20.52,15.87-45.39,30.6-67.41,30.6c-0.33,0-0.66-0.03-0.97-0.03c-21.68-0.28-41.46-9.89-58.82-28.58
					c-14.01-15.18-25.92-33.32-35.97-55c14.9-2.77,30.77-5.68,39.93-7.34C241.55,264.98,249.72,276.83,259.02,286.83z M196.66,98.26
					c-19.36,0-35.06-15.7-35.06-35.06c0-19.39,15.7-35.09,35.06-35.09s35.06,15.7,35.06,35.09
					C231.72,82.56,216.01,98.26,196.66,98.26z"/>
			</g>
		</g>
	</g>
</g>
</svg>
