<svg width="32" height="32" viewBox="0 0 32 32" fill="none" xmlns="http://www.w3.org/2000/svg">
<g id="share_3_line">
<g clip-path="url(#clip0_916_660)">
<rect width="32" height="32" rx="5" fill="white"/>
<g id="Group">
<path id="Vector" d="M13.3333 8C13.5599 8.00025 13.7778 8.087 13.9425 8.24253C14.1073 8.39806 14.2064 8.61062 14.2197 8.8368C14.233 9.06297 14.1594 9.28567 14.014 9.45941C13.8686 9.63314 13.6623 9.7448 13.4373 9.77156L13.3333 9.77778H9.77778V22.2222H22.2222V14.2222C22.2225 13.9957 22.3092 13.7777 22.4648 13.613C22.6203 13.4483 22.8328 13.3491 23.059 13.3358C23.2852 13.3226 23.5079 13.3962 23.6816 13.5416C23.8554 13.687 23.967 13.8932 23.9938 14.1182L24 14.2222V22.2222C24.0001 22.6707 23.8308 23.1027 23.5258 23.4316C23.2208 23.7605 22.8028 23.9619 22.3556 23.9956L22.2222 24H9.77778C9.32927 24.0001 8.89727 23.8308 8.5684 23.5258C8.23953 23.2208 8.03808 22.8028 8.00444 22.3556L8 22.2222V9.77778C7.99986 9.32927 8.16925 8.89727 8.47422 8.5684C8.77919 8.23953 9.1972 8.03808 9.64444 8.00444L9.77778 8H13.3333ZM22.6782 8C23.2311 8 23.5529 8.416 23.6338 8.76089C23.7147 9.10667 23.6116 9.624 23.1138 9.86933L22.7458 10.0569L22.6 10.1351L22.2773 10.3138L21.9173 10.5236L21.5271 10.7636C20.9209 11.1458 20.2293 11.6311 19.5342 12.2187C18.064 13.4622 16.6382 15.1173 15.9547 17.1698C15.8802 17.3935 15.7199 17.5785 15.509 17.684C15.2981 17.7895 15.0539 17.8069 14.8302 17.7324C14.6065 17.6579 14.4215 17.4976 14.316 17.2868C14.2105 17.0759 14.1931 16.8317 14.2676 16.608C15.0924 14.1333 16.7769 12.2231 18.3867 10.8613C18.7698 10.5369 19.1529 10.2409 19.5227 9.97244L19.7982 9.77778H17.7778C17.5512 9.77753 17.3333 9.69077 17.1686 9.53525C17.0038 9.37972 16.9047 9.16715 16.8914 8.94098C16.8781 8.71481 16.9517 8.49211 17.0971 8.31837C17.2425 8.14463 17.4488 8.03298 17.6738 8.00622L17.7778 8H22.6782Z" fill="#09244B"/>
</g>
</g>
</g>
<defs>
<clipPath id="clip0_916_660">
<rect width="32" height="32" rx="5" fill="white"/>
</clipPath>
</defs>
</svg>
